<svg width="27" height="27" viewBox="0 0 27 27" fill="none" xmlns="http://www.w3.org/2000/svg">
<g clip-path="url(#clip0_156_280)">
<path d="M18.9174 1.80884L20.3461 4.48774L23.025 5.91648L20.3461 7.34522L18.9174 10.0241L17.4886 7.34522L14.8098 5.91648L17.4886 4.48774L18.9174 1.80884ZM9.16737 5.19425L12.0562 10.6109L17.4729 13.4998L12.0562 16.3887L9.16737 21.8054L6.27848 16.3887L0.861816 13.4998L6.27848 10.6109L9.16737 5.19425ZM21.8062 18.1943L20.0008 14.8089L18.1952 18.1943L14.8098 19.9998L18.1952 21.8054L20.0008 25.1908L21.8062 21.8054L25.1917 19.9998L21.8062 18.1943Z" fill="white"/>
<path d="M18.9174 1.80884L20.3461 4.48774L23.025 5.91648L20.3461 7.34522L18.9174 10.0241L17.4886 7.34522L14.8098 5.91648L17.4886 4.48774L18.9174 1.80884ZM9.16737 5.19425L12.0562 10.6109L17.4729 13.4998L12.0562 16.3887L9.16737 21.8054L6.27848 16.3887L0.861816 13.4998L6.27848 10.6109L9.16737 5.19425ZM21.8062 18.1943L20.0008 14.8089L18.1952 18.1943L14.8098 19.9998L18.1952 21.8054L20.0008 25.1908L21.8062 21.8054L25.1917 19.9998L21.8062 18.1943Z" fill="url(#paint0_linear_156_280)"/>
</g>
<defs>
<linearGradient id="paint0_linear_156_280" x1="6.50981" y1="25.1908" x2="24.3576" y2="4.02816" gradientUnits="userSpaceOnUse">
<stop stop-color="#1B917F"/>
<stop offset="0.671875" stop-color="#90FFEE"/>
<stop offset="1" stop-color="#03855C"/>
</linearGradient>
<clipPath id="clip0_156_280">
<rect width="26" height="26" fill="white" transform="translate(0.5 0.5)"/>
</clipPath>
</defs>
</svg>
