<svg width="238" height="217" viewBox="0 0 238 217" fill="none" xmlns="http://www.w3.org/2000/svg">
<g id="Frame 52338">
<g id="Group 166">
<path id="Vector" d="M224.5 216.5H130.499C123.044 216.5 116.999 210.455 116.999 203V86.0005C116.999 78.5435 123.044 72.5005 130.499 72.5005L224.5 72.5005C231.955 72.5005 238 78.5435 238 86.0005V203C238 210.455 231.955 216.5 224.5 216.5ZM130.499 81.4999C128.014 81.4999 126 83.5154 126 86.0005V203C126 205.485 128.014 207.5 130.499 207.5H224.5C226.985 207.5 229.001 205.485 229.001 203V86.0005C229.001 83.5154 226.985 81.4999 224.5 81.4999H130.499Z" fill="#02C394"/>
<path id="Vector_2" d="M142 189.5H160.001V198.499H142V189.5Z" fill="#02C394"/>
<path id="Vector_3" d="M108 153.501H13.5C6.04468 153.501 0 147.456 0 140.001V14C0 6.54468 6.04468 0.5 13.5 0.5H175.5C182.955 0.5 189 6.54468 189 14V63.4995H180.001V14C180.001 11.5149 177.985 9.49945 175.5 9.49945H13.5C11.0149 9.49945 8.99945 11.5149 8.99945 14V140.001C8.99945 142.486 11.0149 144.499 13.5 144.499H108V153.501Z" fill="#02C394"/>
<path id="Vector_4" d="M54 149H62.9995V171.499H54V149Z" fill="#02C394"/>
<path id="Vector_5" d="M40.5 167H108V176H40.5V167Z" fill="#02C394"/>
<path id="Vector_6" d="M26.9999 40.9999H18.0005V32.0005C18.0005 24.5435 24.0435 18.5005 31.5005 18.5005H40.4999V27.4999H31.5005C29.0154 27.4999 26.9999 29.5154 26.9999 32.0005V40.9999Z" fill="#02C394"/>
<path id="Vector_7" d="M18.0005 49.9995H26.9999V59.0006H18.0005V49.9995Z" fill="#02C394"/>
<path id="Vector_8" d="M210.501 90.4995H219.5V99.5006H210.501V90.4995Z" fill="#02C394"/>
<path id="Vector_9" d="M210.501 108.5H219.5V117.499H210.501V108.5Z" fill="#02C394"/>
<path id="Vector_10" d="M192.5 90.4995H201.501V99.5006H192.5V90.4995Z" fill="#02C394"/>
<path id="Vector_11" d="M157.499 63.4994H148.5V45.5005C148.5 43.0154 146.485 40.9999 143.999 40.9999H99.0006C97.1796 40.9999 95.5399 39.9024 94.8428 38.2215C94.1474 36.5406 94.5313 34.6059 95.8184 33.3188L109.318 19.8188L115.681 26.1816L109.862 32.0005H143.999C151.456 32.0005 157.499 38.0435 157.499 45.5005V63.4994Z" fill="#02C394"/>
<path id="Vector_12" d="M95.8167 39.6799L102.181 33.3171L115.683 46.8171L109.318 53.1815L95.8167 39.6799Z" fill="#02C394"/>
<path id="Vector_13" d="M4.50049 113H35.9994V122H4.50049V113Z" fill="#02C394"/>
</g>
</g>
</svg>
