<svg width="16" height="22" viewBox="0 0 16 22" fill="none" xmlns="http://www.w3.org/2000/svg">
<path d="M11.225 6.81693C10.4634 6.81693 9.84375 6.19732 9.84375 5.43572V0.897461H2.77985C1.58305 0.897461 0.609375 1.87113 0.609375 3.06793V18.9321C0.609375 20.1289 1.58305 21.1026 2.77985 21.1026H13.8295C15.0263 21.1026 16 20.1289 16 18.9321V6.81693H11.225ZM3.84535 15.1042H6.71511C7.04202 15.1042 7.30706 15.3692 7.30706 15.6961C7.30706 16.0231 7.04202 16.2881 6.71511 16.2881H3.84535C3.51844 16.2881 3.25341 16.0231 3.25341 15.6961C3.25341 15.3692 3.51844 15.1042 3.84535 15.1042ZM3.25341 12.5391C3.25341 12.2122 3.51844 11.9471 3.84535 11.9471H12.5272C12.8542 11.9471 13.1192 12.2122 13.1192 12.5391C13.1192 12.866 12.8542 13.131 12.5272 13.131H3.84535C3.51844 13.131 3.25341 12.866 3.25341 12.5391ZM12.5272 8.79009C12.8542 8.79009 13.1192 9.05512 13.1192 9.38204C13.1192 9.70895 12.8542 9.97398 12.5272 9.97398H3.84535C3.51844 9.97398 3.25341 9.70895 3.25341 9.38204C3.25341 9.05512 3.51844 8.79009 3.84535 8.79009H12.5272Z" fill="white"/>
<path d="M11.225 6.81693C10.4634 6.81693 9.84375 6.19732 9.84375 5.43572V0.897461H2.77985C1.58305 0.897461 0.609375 1.87113 0.609375 3.06793V18.9321C0.609375 20.1289 1.58305 21.1026 2.77985 21.1026H13.8295C15.0263 21.1026 16 20.1289 16 18.9321V6.81693H11.225ZM3.84535 15.1042H6.71511C7.04202 15.1042 7.30706 15.3692 7.30706 15.6961C7.30706 16.0231 7.04202 16.2881 6.71511 16.2881H3.84535C3.51844 16.2881 3.25341 16.0231 3.25341 15.6961C3.25341 15.3692 3.51844 15.1042 3.84535 15.1042ZM3.25341 12.5391C3.25341 12.2122 3.51844 11.9471 3.84535 11.9471H12.5272C12.8542 11.9471 13.1192 12.2122 13.1192 12.5391C13.1192 12.866 12.8542 13.131 12.5272 13.131H3.84535C3.51844 13.131 3.25341 12.866 3.25341 12.5391ZM12.5272 8.79009C12.8542 8.79009 13.1192 9.05512 13.1192 9.38204C13.1192 9.70895 12.8542 9.97398 12.5272 9.97398H3.84535C3.51844 9.97398 3.25341 9.70895 3.25341 9.38204C3.25341 9.05512 3.51844 8.79009 3.84535 8.79009H12.5272Z" fill="url(#paint0_linear_107_317)"/>
<path d="M11.0278 5.43583C11.0278 5.54463 11.1163 5.63314 11.2251 5.63314H15.7363C15.6281 5.43322 15.4887 5.2496 15.3214 5.09124L11.5162 1.49133C11.3686 1.35163 11.2041 1.23509 11.0279 1.14307V5.43583H11.0278Z" fill="white"/>
<path d="M11.0278 5.43583C11.0278 5.54463 11.1163 5.63314 11.2251 5.63314H15.7363C15.6281 5.43322 15.4887 5.2496 15.3214 5.09124L11.5162 1.49133C11.3686 1.35163 11.2041 1.23509 11.0279 1.14307V5.43583H11.0278Z" fill="url(#paint1_linear_107_317)"/>
<defs>
<linearGradient id="paint0_linear_107_317" x1="4.1822" y1="21.1026" x2="19.6739" y2="7.65571" gradientUnits="userSpaceOnUse">
<stop stop-color="#1B917F"/>
<stop offset="0.671875" stop-color="#90FFEE"/>
<stop offset="1" stop-color="#03855C"/>
</linearGradient>
<linearGradient id="paint1_linear_107_317" x1="12.1209" y1="5.63314" x2="15.5436" y2="1.54306" gradientUnits="userSpaceOnUse">
<stop stop-color="#1B917F"/>
<stop offset="0.671875" stop-color="#90FFEE"/>
<stop offset="1" stop-color="#03855C"/>
</linearGradient>
</defs>
</svg>
