<svg width="128" height="129" viewBox="0 0 128 129" fill="none" xmlns="http://www.w3.org/2000/svg">
<g opacity="0.7" clip-path="url(#clip0_246_243)">
<path d="M124.666 77.2948V63.5724C124.666 59.3631 122.45 55.4572 118.971 53.2424C122.383 52.7044 125.001 49.7445 125.001 46.1837C125.001 43.7804 123.045 41.825 120.642 41.825H117.322C114.478 41.825 111.929 43.104 110.214 45.115L109.942 44.0049C109.696 43.0031 108.684 42.3894 107.682 42.6362C106.681 42.8823 106.068 43.894 106.314 44.8958L107.468 49.594C92.2749 49.594 60.9323 49.594 45.6761 49.594L49.4548 34.2064C49.7977 32.8106 51.0411 31.8355 52.4785 31.8355H100.665C102.103 31.8355 103.346 32.8106 103.689 34.2064L104.231 36.4126C104.477 37.4144 105.487 38.0271 106.49 37.7815C107.492 37.5355 108.105 36.524 107.859 35.522L107.317 33.3157C106.563 30.2444 103.827 28.0996 100.665 28.0996H98.7543C99.3072 27.0854 99.6221 25.9235 99.6221 24.6893C99.6221 22.286 97.6666 20.3306 95.2633 20.3306H91.9422C89.0985 20.3306 86.5493 21.6096 84.8349 23.6206L81.9372 11.821C81.1833 8.74974 78.4477 6.60498 75.2855 6.60498H27.0988C23.9366 6.60498 21.2008 8.74974 20.4469 11.821L17.5494 23.6203C15.8348 21.6093 13.2856 20.3303 10.4419 20.3303H7.12154C4.71825 20.3303 2.76278 22.2858 2.76278 24.6891C2.76278 28.2496 5.38028 31.2098 8.79206 31.7475C5.31328 33.9623 3.09729 37.868 3.09729 42.0775V55.7999C1.36699 56.4056 0.119385 58.061 0.119385 60.0082V67.7773C0.119385 70.2354 2.10424 72.2349 4.54365 72.2349H8.55221C9.63841 73.544 11.1822 74.4601 12.9359 74.7366C9.45709 76.9513 7.24109 80.857 7.24109 85.0666V98.7889C5.51054 99.3947 4.26294 101.05 4.26294 102.997V110.667C4.26294 113.126 6.2478 115.125 8.6872 115.125H10.349V118.535C10.349 120.939 12.3045 122.894 14.7078 122.894H27.8543C30.2576 122.894 32.213 120.939 32.213 118.535V115.125H78.4587V118.535C78.4587 120.939 80.4141 122.894 82.8174 122.894H95.964C98.3672 122.894 100.323 120.939 100.323 118.535V115.125H101.985C104.424 115.125 106.409 113.125 106.409 110.667V102.997C106.409 102.434 106.3 101.896 106.11 101.4H117.2C119.603 101.4 121.559 99.4442 121.559 97.0409V93.6307H123.22C125.66 93.6307 127.645 91.6309 127.645 89.173V81.5029C127.644 79.5559 126.397 77.9003 124.666 77.2948ZM117.322 45.5611H120.642C120.985 45.5611 121.265 45.8405 121.265 46.1837C121.265 48.0642 119.735 49.594 117.854 49.594H111.942C112.622 47.2662 114.777 45.5611 117.322 45.5611ZM109.501 53.3303L115.504 55.6537C118.749 56.91 120.93 60.0922 120.93 63.5722V77.0452H100.41C99.6393 76.157 98.7401 75.3764 97.7356 74.7368C99.0495 74.5296 100.244 73.963 101.219 73.1415H109.849C113.735 73.1415 116.897 69.9801 116.897 66.094V64.7991C116.897 62.341 114.897 60.3415 112.439 60.3415H106.128C103.462 60.3415 100.975 61.4172 99.163 63.3196H96.0857C93.2421 63.3196 90.6928 64.5986 88.9785 66.6096L86.0808 54.8101C85.9523 54.287 85.7625 53.7936 85.5268 53.3303H109.501ZM102.876 65.0519C103.827 64.4223 104.948 64.0778 106.128 64.0778H112.439C112.837 64.0778 113.161 64.4016 113.161 64.7994V66.0943C113.161 67.9202 111.675 69.4057 109.849 69.4057H103.552C103.69 68.8523 103.765 68.2742 103.765 67.6786C103.765 66.6916 103.431 65.7832 102.876 65.0519ZM99.4061 67.0557C99.7496 67.0557 100.029 67.3352 100.029 67.6784C100.029 69.5589 98.4987 71.0887 96.6185 71.0887H90.7058C91.3865 68.7606 93.541 67.0557 96.086 67.0557H99.4061ZM79.4291 53.3303C80.8665 53.3303 82.1098 54.3052 82.4528 55.7013L86.2315 71.0889H24.44L28.2192 55.701C28.5616 54.3052 29.805 53.3303 31.2426 53.3303H79.4291ZM35.2886 49.5943C33.4081 49.5943 31.8783 48.0642 31.8783 46.1837C31.8783 45.8405 32.1575 45.5611 32.501 45.5611H35.8213C38.3661 45.5611 40.5186 47.2667 41.1998 49.5943H35.2886ZM17.9141 47.9108C16.0881 47.9108 14.6027 46.4253 14.6027 44.5994V43.3045C14.6027 42.9064 14.9265 42.5829 15.3242 42.5829H21.6357C24.2564 42.5829 26.5897 44.3428 27.3096 46.863L27.6089 47.9108H17.9141ZM91.9422 24.0664H95.2626C95.606 24.0664 95.8852 24.3459 95.8852 24.6891C95.8852 26.5696 94.3552 28.0994 92.475 28.0994H86.564C87.2449 25.7721 89.3974 24.0664 91.9422 24.0664ZM6.49886 24.6891C6.49886 24.3459 6.77807 24.0664 7.12154 24.0664H10.4419C12.9869 24.0664 15.1412 25.7716 15.8221 28.0994H9.9094C8.02891 28.0996 6.49886 26.5696 6.49886 24.6891ZM12.2596 34.159L18.2628 31.8355H32.5251C33.557 31.8355 34.3932 30.9991 34.3932 29.9674C34.3932 28.9358 33.557 28.0994 32.5251 28.0994H20.2964L24.0751 12.7117C24.4181 11.3159 25.6614 10.3408 27.0991 10.3408H75.2858C76.7232 10.3408 77.9665 11.3159 78.3095 12.7117L82.0882 28.0994C74.1076 28.0994 48.7502 28.0994 41.2431 28.0994C40.2112 28.0994 39.3751 28.9358 39.3751 29.9674C39.3751 30.9991 40.2112 31.8355 41.2431 31.8355H46.3807C46.1451 32.2987 45.9551 32.7924 45.8268 33.3154L42.9293 45.115C41.2147 43.104 38.6657 41.825 35.8218 41.825H32.5015C31.3607 41.825 30.3243 42.2691 29.5465 42.9886C27.7766 40.4553 24.838 38.8466 21.6362 38.8466H15.3247C12.8666 38.8466 10.8671 40.8464 10.8671 43.3042V44.5991C10.8671 48.4852 14.0285 51.6466 17.9146 51.6466H26.3556C25.5172 52.5014 24.8931 53.5792 24.5909 54.8098L24.4091 55.5503H6.83361V42.0773C6.83361 38.5973 9.01424 35.4154 12.2596 34.159ZM4.54365 68.4991C4.16431 68.4991 3.85546 68.1753 3.85546 67.7775V60.0085C3.85546 59.6104 4.16406 59.2869 4.54365 59.2869H23.4913L21.693 66.6101C19.9784 64.5991 17.4294 63.3201 14.5857 63.3201H11.2651C8.8618 63.3201 6.90634 65.2756 6.90634 67.6789C6.90634 67.9566 6.92403 68.2301 6.95491 68.4996H4.54365V68.4991ZM10.6424 67.6784C10.6424 67.3352 10.9216 67.0557 11.2651 67.0557H14.5857C17.1307 67.0557 19.2847 68.7608 19.9657 71.0887H14.0527C12.1725 71.0889 10.6424 69.5589 10.6424 67.6784ZM7.99902 110.668V102.998C7.99902 102.6 8.30762 102.276 8.6872 102.276H20.8123C21.8442 102.276 22.6803 101.44 22.6803 100.408C22.6803 99.3765 21.8442 98.5401 20.8123 98.5401H10.9772V85.0671C10.9772 81.5871 13.1578 78.4047 16.4032 77.1486L22.4066 74.825H88.2649L94.2683 77.1486C97.5137 78.4047 99.6943 81.5868 99.6943 85.0671V98.5401H29.5298C28.4979 98.5401 27.6617 99.3765 27.6617 100.408C27.6617 101.44 28.4979 102.276 29.5298 102.276H37.9295V111.39H8.68696C8.30762 111.389 7.99902 111.066 7.99902 110.668ZM69.0059 102.276V111.389H41.6653V102.276H69.0059ZM28.477 118.536C28.477 118.879 28.1977 119.159 27.8543 119.159H14.7075C14.364 119.159 14.0848 118.879 14.0848 118.536V115.126H28.4767L28.477 118.536ZM96.5866 118.536C96.5866 118.879 96.3074 119.159 95.964 119.159H82.8174C82.474 119.159 82.1948 118.879 82.1948 118.536V115.126H96.5866V118.536ZM102.672 110.668C102.672 111.066 102.364 111.389 101.984 111.389H72.742V102.276H101.984C102.363 102.276 102.672 102.6 102.672 102.998V110.668ZM117.822 97.0412C117.822 97.3844 117.543 97.6639 117.199 97.6639H103.43V93.6309H117.822V97.0412ZM123.908 89.1733C123.908 89.5713 123.599 89.8948 123.22 89.8948H103.43V85.0668C103.43 83.5799 103.152 82.1315 102.641 80.7813H123.22C123.599 80.7813 123.908 81.1051 123.908 81.5029V89.1733Z" fill="url(#paint0_linear_246_243)"/>
<path d="M39.1456 89.4134C39.97 92.4887 42.7691 94.6365 45.953 94.6365H64.718C67.9017 94.6365 70.701 92.4887 71.5252 89.4134L72.9257 84.1882C73.0761 83.6272 72.9571 83.0282 72.6034 82.5675C72.25 82.1067 71.7022 81.8364 71.1214 81.8364H39.5496C38.9687 81.8364 38.421 82.1064 38.0676 82.5675C37.7139 83.0282 37.5951 83.627 37.7453 84.1882L39.1456 89.4134ZM67.9164 88.446C67.5291 89.8912 66.2137 90.9004 64.7178 90.9004H57.2033V85.5725H68.6865L67.9164 88.446ZM53.4672 85.5725V90.9004H45.9527C44.4565 90.9004 43.1412 89.8912 42.7539 88.4463L41.9837 85.5725H53.4672Z" fill="url(#paint1_linear_246_243)"/>
<path d="M35.7192 93.8932C36.0724 93.4252 36.1852 92.8187 36.0241 92.2551L35.0443 88.8261C33.8686 84.7107 30.0581 81.8364 25.7778 81.8364H19.4663C17.0082 81.8364 15.0087 83.8362 15.0087 86.2941V87.589C15.0087 91.475 18.1701 94.6365 22.0562 94.6365H34.228C34.8141 94.6365 35.3663 94.3612 35.7192 93.8932ZM22.0559 90.9004C20.23 90.9004 18.7445 89.4149 18.7445 87.589V86.2941C18.7445 85.896 19.0683 85.5725 19.4661 85.5725H25.7775C28.3983 85.5725 30.7318 87.3324 31.4516 89.8526L31.751 90.9004H22.0559Z" fill="url(#paint2_linear_246_243)"/>
<path d="M76.4411 94.6365H88.6128C92.4988 94.6365 95.6602 91.475 95.6602 87.589V86.2941C95.6602 83.836 93.6607 81.8364 91.2026 81.8364H86.2498C85.2179 81.8364 84.3818 82.6728 84.3818 83.7045C84.3818 84.7361 85.2179 85.5725 86.2498 85.5725H91.2026C91.6006 85.5725 91.9242 85.8963 91.9242 86.2941V87.589C91.9242 89.4149 90.4387 90.9004 88.6128 90.9004H78.9176L79.217 89.8523C79.3914 89.2413 79.6609 88.6665 80.018 88.1442C80.6001 87.2923 80.3814 86.1302 79.5296 85.5478C78.6783 84.966 77.5156 85.1844 76.9333 86.0363C76.3497 86.8901 75.9096 87.8288 75.6244 88.8259L74.6446 92.2551C74.4837 92.8187 74.5965 93.4252 74.9497 93.8932C75.3026 94.3612 75.8548 94.6365 76.4411 94.6365Z" fill="url(#paint3_linear_246_243)"/>
</g>
<defs>
<linearGradient id="paint0_linear_246_243" x1="63.882" y1="6.60498" x2="63.882" y2="122.894" gradientUnits="userSpaceOnUse">
<stop stop-color="white"/>
<stop offset="1" stop-color="#88B3AA"/>
</linearGradient>
<linearGradient id="paint1_linear_246_243" x1="55.3355" y1="81.8364" x2="55.3355" y2="94.6365" gradientUnits="userSpaceOnUse">
<stop stop-color="white"/>
<stop offset="1" stop-color="#88B3AA"/>
</linearGradient>
<linearGradient id="paint2_linear_246_243" x1="25.5524" y1="81.8364" x2="25.5524" y2="94.6365" gradientUnits="userSpaceOnUse">
<stop stop-color="white"/>
<stop offset="1" stop-color="#88B3AA"/>
</linearGradient>
<linearGradient id="paint3_linear_246_243" x1="85.1165" y1="81.8364" x2="85.1165" y2="94.6365" gradientUnits="userSpaceOnUse">
<stop stop-color="white"/>
<stop offset="1" stop-color="#88B3AA"/>
</linearGradient>
<clipPath id="clip0_246_243">
<rect width="127.525" height="127.525" fill="white" transform="translate(0.119263 0.987305)"/>
</clipPath>
</defs>
</svg>
