<svg width="3210" height="1084" viewBox="0 0 3210 1084" fill="none" xmlns="http://www.w3.org/2000/svg">
<g opacity="0.5" filter="url(#filter0_f_1078_2134)">
<ellipse cx="1629.65" cy="636.549" rx="415.058" ry="251.607" fill="#02C3B9"/>
</g>
<g opacity="0.5" filter="url(#filter1_f_1078_2134)">
<ellipse cx="1968.33" cy="591.526" rx="274.603" ry="166.464" fill="#E1E1E1"/>
</g>
<g opacity="0.5" filter="url(#filter2_f_1078_2134)">
<ellipse cx="1317.66" cy="573.68" rx="274.603" ry="166.464" fill="#E1E1E1"/>
</g>
<g filter="url(#filter3_f_1078_2134)">
<ellipse cx="1630.01" cy="652.456" rx="206.413" ry="124.568" fill="#E1E1E1"/>
</g>
<g filter="url(#filter4_f_1078_2134)">
<ellipse cx="1919.86" cy="613.196" rx="206.413" ry="124.568" fill="#E1E1E1"/>
</g>
<g filter="url(#filter5_f_1078_2134)">
<ellipse cx="1369.74" cy="595.351" rx="206.413" ry="124.568" fill="#E1E1E1"/>
</g>
<g filter="url(#filter6_f_1078_2134)">
<ellipse cx="1622.75" cy="650.325" rx="384.49" ry="248.046" fill="#02C394"/>
</g>
<g filter="url(#filter7_f_1078_2134)">
<ellipse cx="2137.37" cy="518.271" rx="384.49" ry="248.046" fill="#20932D"/>
</g>
<g filter="url(#filter8_f_1078_2134)">
<path d="M2007.24 639.618C2007.24 776.61 1835.09 887.664 1622.75 887.664C1410.4 887.664 1238.26 776.61 1238.26 639.618C1238.26 502.626 1410.4 391.572 1622.75 391.572C1835.09 391.572 2007.24 502.626 2007.24 639.618Z" fill="#02C394"/>
</g>
<g filter="url(#filter9_f_1078_2134)">
<ellipse cx="1614.86" cy="672.332" rx="256.327" ry="110.639" fill="white"/>
</g>
<g filter="url(#filter10_f_1078_2134)">
<ellipse cx="2227.08" cy="596.789" rx="286.889" ry="184.993" fill="#001E18"/>
</g>
<g filter="url(#filter11_f_1078_2134)">
<ellipse cx="1630.28" cy="601.044" rx="274.603" ry="166.464" fill="white"/>
</g>
<g filter="url(#filter12_f_1078_2134)">
<ellipse cx="1605" cy="712.187" rx="394.349" ry="60.0782" fill="white"/>
</g>
<g filter="url(#filter13_f_1078_2134)">
<path d="M617.335 590.452L197.174 450.84L309.285 427.67C535.525 481.931 1006.79 600.076 1081.94 638.574C1175.87 686.695 1650.57 661.743 1970.74 661.743C2226.87 661.743 2672.69 507.279 2863.58 430.047L3085.78 278.553C3070.29 376.38 2877.11 593.66 2228.29 680.16C1579.46 766.66 1131.09 703.924 988.006 661.743L617.335 590.452Z" fill="#02C394"/>
</g>
<g filter="url(#filter14_f_1078_2134)">
<path d="M617.335 590.452L197.174 450.84L309.285 427.67C535.525 481.931 1006.79 600.076 1081.94 638.574C1175.87 686.695 1650.57 661.743 1970.74 661.743C2226.87 661.743 2672.69 507.279 2863.58 430.047L3085.78 278.553C3070.29 376.38 2877.11 593.66 2228.29 680.16C1579.46 766.66 1131.09 703.924 988.006 661.743L617.335 590.452Z" fill="white" fill-opacity="0.4"/>
</g>
<path d="M0 6.10352e-05C633.309 1004.44 2571.61 1017.86 3210 6.10352e-05H0Z" fill="#081716"/>
<defs>
<filter id="filter0_f_1078_2134" x="1087.29" y="257.635" width="1084.73" height="757.829" filterUnits="userSpaceOnUse" color-interpolation-filters="sRGB">
<feFlood flood-opacity="0" result="BackgroundImageFix"/>
<feBlend mode="normal" in="SourceGraphic" in2="BackgroundImageFix" result="shape"/>
<feGaussianBlur stdDeviation="63.6534" result="effect1_foregroundBlur_1078_2134"/>
</filter>
<filter id="filter1_f_1078_2134" x="1566.42" y="297.755" width="803.819" height="587.541" filterUnits="userSpaceOnUse" color-interpolation-filters="sRGB">
<feFlood flood-opacity="0" result="BackgroundImageFix"/>
<feBlend mode="normal" in="SourceGraphic" in2="BackgroundImageFix" result="shape"/>
<feGaussianBlur stdDeviation="63.6534" result="effect1_foregroundBlur_1078_2134"/>
</filter>
<filter id="filter2_f_1078_2134" x="915.746" y="279.91" width="803.819" height="587.541" filterUnits="userSpaceOnUse" color-interpolation-filters="sRGB">
<feFlood flood-opacity="0" result="BackgroundImageFix"/>
<feBlend mode="normal" in="SourceGraphic" in2="BackgroundImageFix" result="shape"/>
<feGaussianBlur stdDeviation="63.6534" result="effect1_foregroundBlur_1078_2134"/>
</filter>
<filter id="filter3_f_1078_2134" x="1312.29" y="416.577" width="635.445" height="471.757" filterUnits="userSpaceOnUse" color-interpolation-filters="sRGB">
<feFlood flood-opacity="0" result="BackgroundImageFix"/>
<feBlend mode="normal" in="SourceGraphic" in2="BackgroundImageFix" result="shape"/>
<feGaussianBlur stdDeviation="55.655" result="effect1_foregroundBlur_1078_2134"/>
</filter>
<filter id="filter4_f_1078_2134" x="1586.14" y="361.321" width="667.439" height="503.75" filterUnits="userSpaceOnUse" color-interpolation-filters="sRGB">
<feFlood flood-opacity="0" result="BackgroundImageFix"/>
<feBlend mode="normal" in="SourceGraphic" in2="BackgroundImageFix" result="shape"/>
<feGaussianBlur stdDeviation="63.6534" result="effect1_foregroundBlur_1078_2134"/>
</filter>
<filter id="filter5_f_1078_2134" x="1036.02" y="343.476" width="667.439" height="503.75" filterUnits="userSpaceOnUse" color-interpolation-filters="sRGB">
<feFlood flood-opacity="0" result="BackgroundImageFix"/>
<feBlend mode="normal" in="SourceGraphic" in2="BackgroundImageFix" result="shape"/>
<feGaussianBlur stdDeviation="63.6534" result="effect1_foregroundBlur_1078_2134"/>
</filter>
<filter id="filter6_f_1078_2134" x="1052.88" y="216.902" width="1139.73" height="866.845" filterUnits="userSpaceOnUse" color-interpolation-filters="sRGB">
<feFlood flood-opacity="0" result="BackgroundImageFix"/>
<feBlend mode="normal" in="SourceGraphic" in2="BackgroundImageFix" result="shape"/>
<feGaussianBlur stdDeviation="92.6883" result="effect1_foregroundBlur_1078_2134"/>
</filter>
<filter id="filter7_f_1078_2134" x="1567.5" y="84.8484" width="1139.73" height="866.845" filterUnits="userSpaceOnUse" color-interpolation-filters="sRGB">
<feFlood flood-opacity="0" result="BackgroundImageFix"/>
<feBlend mode="normal" in="SourceGraphic" in2="BackgroundImageFix" result="shape"/>
<feGaussianBlur stdDeviation="92.6883" result="effect1_foregroundBlur_1078_2134"/>
</filter>
<filter id="filter8_f_1078_2134" x="1052.88" y="206.196" width="1139.73" height="866.845" filterUnits="userSpaceOnUse" color-interpolation-filters="sRGB">
<feFlood flood-opacity="0" result="BackgroundImageFix"/>
<feBlend mode="normal" in="SourceGraphic" in2="BackgroundImageFix" result="shape"/>
<feGaussianBlur stdDeviation="92.6883" result="effect1_foregroundBlur_1078_2134"/>
</filter>
<filter id="filter9_f_1078_2134" x="1300.53" y="503.693" width="628.653" height="337.278" filterUnits="userSpaceOnUse" color-interpolation-filters="sRGB">
<feFlood flood-opacity="0" result="BackgroundImageFix"/>
<feBlend mode="normal" in="SourceGraphic" in2="BackgroundImageFix" result="shape"/>
<feGaussianBlur stdDeviation="29" result="effect1_foregroundBlur_1078_2134"/>
</filter>
<filter id="filter10_f_1078_2134" x="1754.82" y="226.419" width="944.531" height="740.74" filterUnits="userSpaceOnUse" color-interpolation-filters="sRGB">
<feFlood flood-opacity="0" result="BackgroundImageFix"/>
<feBlend mode="normal" in="SourceGraphic" in2="BackgroundImageFix" result="shape"/>
<feGaussianBlur stdDeviation="92.6883" result="effect1_foregroundBlur_1078_2134"/>
</filter>
<filter id="filter11_f_1078_2134" x="1307.67" y="386.58" width="645.205" height="428.927" filterUnits="userSpaceOnUse" color-interpolation-filters="sRGB">
<feFlood flood-opacity="0" result="BackgroundImageFix"/>
<feBlend mode="normal" in="SourceGraphic" in2="BackgroundImageFix" result="shape"/>
<feGaussianBlur stdDeviation="24" result="effect1_foregroundBlur_1078_2134"/>
</filter>
<filter id="filter12_f_1078_2134" x="1146.65" y="588.108" width="916.697" height="248.156" filterUnits="userSpaceOnUse" color-interpolation-filters="sRGB">
<feFlood flood-opacity="0" result="BackgroundImageFix"/>
<feBlend mode="normal" in="SourceGraphic" in2="BackgroundImageFix" result="shape"/>
<feGaussianBlur stdDeviation="32" result="effect1_foregroundBlur_1078_2134"/>
</filter>
<filter id="filter13_f_1078_2134" x="81.1743" y="162.553" width="3120.6" height="676.936" filterUnits="userSpaceOnUse" color-interpolation-filters="sRGB">
<feFlood flood-opacity="0" result="BackgroundImageFix"/>
<feBlend mode="normal" in="SourceGraphic" in2="BackgroundImageFix" result="shape"/>
<feGaussianBlur stdDeviation="58" result="effect1_foregroundBlur_1078_2134"/>
</filter>
<filter id="filter14_f_1078_2134" x="81.1743" y="162.553" width="3120.6" height="676.936" filterUnits="userSpaceOnUse" color-interpolation-filters="sRGB">
<feFlood flood-opacity="0" result="BackgroundImageFix"/>
<feBlend mode="normal" in="SourceGraphic" in2="BackgroundImageFix" result="shape"/>
<feGaussianBlur stdDeviation="58" result="effect1_foregroundBlur_1078_2134"/>
</filter>
</defs>
</svg>
