<svg width="128" height="129" viewBox="0 0 128 129" fill="none" xmlns="http://www.w3.org/2000/svg">
<g opacity="0.7" clip-path="url(#clip0_246_236)">
<path d="M72.6075 40.8498C72.6075 36.1585 68.7907 32.3417 64.0994 32.3417C59.4081 32.3417 55.5914 36.1585 55.5914 40.8498C55.5914 45.541 59.4081 49.3578 64.0994 49.3578C68.7907 49.3578 72.6075 45.541 72.6075 40.8498ZM59.3274 40.8498C59.3274 38.2186 61.4682 36.0778 64.0994 36.0778C66.7306 36.0778 68.8714 38.2186 68.8714 40.8498C68.8714 43.481 66.7306 45.6217 64.0994 45.6217C61.4682 45.6217 59.3274 43.481 59.3274 40.8498ZM124.25 56.4367C126.242 56.4367 127.862 54.8165 127.862 52.8251V43.3751C127.862 41.3838 126.242 39.7636 124.25 39.7636H99.015C98.4873 39.7636 97.9642 39.6281 97.5032 39.3718L65.9675 21.8518V15.5483H80.3606C82.3519 15.5483 83.9721 13.9281 83.9721 11.9368V4.21554C83.9721 2.22422 82.3519 0.604004 80.3606 0.604004H65.8429C63.8516 0.604004 62.2314 2.22422 62.2314 4.21554V21.8518L46.0935 30.8174C45.1919 31.3185 44.8668 32.4558 45.3677 33.3577C45.8691 34.2596 47.0069 34.5849 47.908 34.0835L64.0994 25.0883L95.6884 42.6376C96.7034 43.2018 97.8536 43.4996 99.0148 43.4996H124.126V52.7006H4.07311V43.4996H29.1838C30.345 43.4996 31.4952 43.2018 32.5101 42.6376L40.334 38.2911C41.2359 37.7902 41.5607 36.6529 41.0598 35.751C40.5586 34.8494 39.4214 34.5246 38.5195 35.0252L30.6956 39.3718C30.2344 39.6281 29.7116 39.7636 29.1838 39.7636H3.94858C1.95725 39.7636 0.337036 41.3838 0.337036 43.3751V52.8251C0.337036 54.8165 1.95725 56.4367 3.94858 56.4367H4.07311V116.955C1.96447 117.259 0.337036 119.075 0.337036 121.269V123.765C0.337036 126.171 2.2925 128.129 4.69579 128.129H123.503C125.906 128.129 127.862 126.171 127.862 123.765V121.269C127.862 119.075 126.234 117.259 124.126 116.955V56.4367H124.25ZM65.9675 4.34008H80.236V11.8122H65.9675V4.34008ZM112.917 59.5501V56.4367H120.39V116.905H112.917V113.791C112.917 111.6 111.29 109.786 109.181 109.482V63.859C111.29 63.5554 112.917 61.7414 112.917 59.5501ZM92.6478 56.4367H109.181V59.5501C109.181 59.8935 108.902 60.1728 108.559 60.1728H93.2704C92.927 60.1728 92.6478 59.8935 92.6478 59.5501V56.4367ZM109.181 113.792V116.905H92.6478V113.792C92.6478 113.448 92.927 113.169 93.2704 113.169H108.559C108.902 113.169 109.181 113.448 109.181 113.792ZM39.2871 59.5501V56.4367H88.9117V59.5501C88.9117 61.7414 90.5391 63.5554 92.6478 63.859V87.5403C92.6478 88.5722 93.4839 89.4083 94.5158 89.4083C95.5477 89.4083 96.3838 88.5722 96.3838 87.5403V63.9088H105.445V109.433H96.3838V96.2578C96.3838 95.2259 95.5477 94.3897 94.5158 94.3897C93.4839 94.3897 92.6478 95.2259 92.6478 96.2578V109.482C90.5391 109.786 88.9117 111.6 88.9117 113.791V116.905H78.6771V86.4802C78.6771 84.0769 76.7216 82.1215 74.3183 82.1215H53.8802C51.477 82.1215 49.5215 84.0769 49.5215 86.4802V116.905H39.2869V113.791C39.2869 111.6 37.6594 109.786 35.5508 109.482V63.859C37.6597 63.5554 39.2871 61.7414 39.2871 59.5501ZM74.941 86.4802V116.905H53.2576V86.4802C53.2576 86.1367 53.5368 85.8575 53.8802 85.8575H74.3183C74.6618 85.8575 74.941 86.1367 74.941 86.4802ZM19.0174 56.4367H35.5511V59.5501C35.5511 59.8935 35.2718 60.1728 34.9284 60.1728H19.6401C19.2966 60.1728 19.0174 59.8935 19.0174 59.5501V56.4367ZM34.9284 113.169C35.2718 113.169 35.5511 113.448 35.5511 113.792V116.905H19.0174V113.792C19.0174 113.448 19.2966 113.169 19.6401 113.169H34.9284ZM22.7535 109.433V63.9088H31.815V109.433L22.7535 109.433ZM7.80919 56.4367H15.2813V59.5501C15.2813 61.7414 16.9088 63.5554 19.0174 63.859V109.482C16.9088 109.786 15.2813 111.6 15.2813 113.791V116.905H7.80919V56.4367ZM124.126 123.765C124.126 124.111 123.846 124.393 123.503 124.393H4.69579C4.35232 124.393 4.07311 124.111 4.07311 123.765V121.269C4.07311 120.923 4.35232 120.641 4.69579 120.641H123.503C123.846 120.641 124.126 120.923 124.126 121.269V123.765ZM47.9962 75.1524H80.2029C82.1942 75.1524 83.8144 73.5322 83.8144 71.5409V67.0175C83.8144 65.0262 82.1942 63.406 80.2029 63.406H47.9962C46.0048 63.406 44.3846 65.0262 44.3846 67.0175V71.5409C44.3846 73.5322 46.0048 75.1524 47.9962 75.1524ZM48.1207 67.142H80.0784V71.4164H48.1207V67.142Z" fill="url(#paint0_linear_246_236)"/>
</g>
<defs>
<linearGradient id="paint0_linear_246_236" x1="64.0994" y1="0.604004" x2="64.0994" y2="128.129" gradientUnits="userSpaceOnUse">
<stop stop-color="white"/>
<stop offset="1" stop-color="#88B3AA"/>
</linearGradient>
<clipPath id="clip0_246_236">
<rect width="127.525" height="127.525" fill="white" transform="translate(0.337036 0.604004)"/>
</clipPath>
</defs>
</svg>
