<svg width="24" height="25" viewBox="0 0 24 25" fill="none" xmlns="http://www.w3.org/2000/svg">
<g id="basil:instagram-solid">
<path id="Vector" d="M12 9.35449C11.138 9.35449 10.3114 9.6969 9.7019 10.3064C9.09241 10.9159 8.75 11.7425 8.75 12.6045C8.75 13.4664 9.09241 14.2931 9.7019 14.9026C10.3114 15.5121 11.138 15.8545 12 15.8545C12.862 15.8545 13.6886 15.5121 14.2981 14.9026C14.9076 14.2931 15.25 13.4664 15.25 12.6045C15.25 11.7425 14.9076 10.9159 14.2981 10.3064C13.6886 9.6969 12.862 9.35449 12 9.35449Z" fill="#679F8E"/>
<path id="Vector_2" fill-rule="evenodd" clip-rule="evenodd" d="M5.74132 1.36072C9.90107 0.879761 14.099 0.879761 18.2587 1.36072C20.5313 1.62551 22.3634 3.49277 22.6303 5.87337C23.1232 10.2757 23.1232 14.723 22.6303 19.1253C22.3634 21.5059 20.5313 23.3732 18.2599 23.6392C14.0998 24.1203 9.90147 24.1203 5.74132 23.6392C3.4688 23.3732 1.63666 21.5059 1.36979 19.1266C0.876735 14.7238 0.876735 10.2761 1.36979 5.87337C1.63666 3.49277 3.4688 1.62551 5.74132 1.36072ZM17.9835 5.00531C17.6661 5.00531 17.3617 5.1369 17.1373 5.37114C16.9129 5.60537 16.7868 5.92306 16.7868 6.25432C16.7868 6.58557 16.9129 6.90326 17.1373 7.1375C17.3617 7.37173 17.6661 7.50332 17.9835 7.50332C18.3009 7.50332 18.6053 7.37173 18.8297 7.1375C19.0541 6.90326 19.1802 6.58557 19.1802 6.25432C19.1802 5.92306 19.0541 5.60537 18.8297 5.37114C18.6053 5.1369 18.3009 5.00531 17.9835 5.00531ZM6.31573 12.4993C6.31573 10.9259 6.91461 9.41685 7.98063 8.30424C9.04664 7.19163 10.4925 6.56657 12 6.56657C13.5076 6.56657 14.9534 7.19163 16.0194 8.30424C17.0855 9.41685 17.6843 10.9259 17.6843 12.4993C17.6843 14.0728 17.0855 15.5818 16.0194 16.6944C14.9534 17.8071 13.5076 18.4321 12 18.4321C10.4925 18.4321 9.04664 17.8071 7.98063 16.6944C6.91461 15.5818 6.31573 14.0728 6.31573 12.4993Z" fill="#679F8E"/>
</g>
</svg>
