<svg width="24" height="25" viewBox="0 0 24 25" fill="none" xmlns="http://www.w3.org/2000/svg">
<rect width="24" height="25" fill="#1E1E1E"/>
<g id="Hero Section-pp" clip-path="url(#clip0_0_1)">
<rect width="1440" height="7348" transform="translate(-102 -7128)" fill="#081716"/>
<g id="Join Network">
</g>
<g id="Footer">
<rect id="Rectangle 469" x="-105" y="-535" width="1447" height="755" fill="#091817"/>
<g id="Group 170">
<g id="Group 111">
<g id="Group 91">
<g id="Ellipse 6" filter="url(#filter0_f_0_1)">
<path d="M640 -68C640 15.395 535.011 83 405.5 83C275.989 83 171 15.395 171 -68C171 -151.395 275.989 -219 405.5 -219C535.011 -219 640 -151.395 640 -68Z" fill="#02C394"/>
</g>
<g id="Ellipse 16" filter="url(#filter1_f_0_1)">
<path d="M461 -68C461 63.9961 295.122 171 90.5 171C-114.122 171 -280 63.9961 -280 -68C-280 -199.996 -114.122 -307 90.5 -307C295.122 -307 461 -199.996 461 -68Z" fill="#02C394"/>
</g>
<g id="Ellipse 19" filter="url(#filter2_f_0_1)">
<path d="M462 -54C462 64.7412 312.463 161 128 161C-56.4631 161 -206 64.7412 -206 -54C-206 -172.741 -56.4631 -269 128 -269C312.463 -269 462 -172.741 462 -54Z" fill="#CBFFF2"/>
</g>
</g>
<g id="Vector 13" filter="url(#filter3_f_0_1)">
<path d="M-207.665 -47.7732L-627.826 -187.385L-515.716 -210.555C-289.476 -156.294 181.791 -38.1488 256.935 0.348419C350.866 48.47 825.567 23.5181 1145.74 23.5181C1401.87 23.5181 1847.69 -130.946 2038.58 -208.179L2260.78 -359.672C2245.29 -261.845 2052.11 -44.5651 1403.29 41.935C754.463 128.435 306.089 65.6988 163.005 23.5181L-207.665 -47.7732Z" fill="#02C394"/>
</g>
<g id="Vector 14" filter="url(#filter4_f_0_1)">
<path d="M-207.665 -47.7732L-627.826 -187.385L-515.716 -210.555C-289.476 -156.294 181.791 -38.1489 256.935 0.348412C350.866 48.47 825.567 23.5181 1145.74 23.5181C1401.87 23.5181 1847.69 -130.946 2038.58 -208.179L2260.78 -359.673C2245.29 -261.845 2052.11 -44.5651 1403.29 41.935C754.463 128.435 306.089 65.6988 163.005 23.5181L-207.665 -47.7732Z" fill="white" fill-opacity="0.4"/>
</g>
</g>
<g id="Group 162">
<g id="Group 169">
<path id="Vector 86" d="M-110.897 -266.5C-237.128 -266.5 -110.897 -266.5 -110.897 -266.5V-266.5C-93.3077 -266.5 -70.8157 -266.5 -42.3969 -266.5C591.604 -266.5 405 -121 918.604 -121C1178.6 -121 1344.5 -266.5 1344.5 -266.5V220H-110.897V-266.5Z" fill="#081716"/>
<g id="Frame 52314">
<g id="Frame 47434">
<g id="Frame 52324">
<g id="Frame 350">
<g id="Credits">
<g id="Frame 52313">
<g id="Linkedin">
<path id="Vector" d="M3.46687 1.82324C1.817 1.82324 0.738281 2.90663 0.738281 4.3306C0.738281 5.72311 1.78487 6.8374 3.40356 6.8374H3.43488C5.11702 6.8374 6.16388 5.72311 6.16388 4.3306C6.13243 2.90663 5.11702 1.82324 3.46687 1.82324Z" fill="#679F8E"/>
<path id="Vector_2" d="M1.02344 8.8186H5.84671V23.3296H1.02344V8.8186Z" fill="#679F8E"/>
<path id="Vector_3" d="M17.6858 8.47803C15.0838 8.47803 13.339 10.923 13.339 10.923V8.8186H8.51562V23.3296H13.3388V15.2261C13.3388 14.7923 13.3702 14.3591 13.4977 14.0489C13.8463 13.1826 14.6398 12.2852 15.9723 12.2852C17.7176 12.2852 18.4157 13.6159 18.4157 15.5667V23.3296H23.2385V15.0093C23.2385 10.5521 20.8589 8.47803 17.6858 8.47803Z" fill="#679F8E"/>
</g>
</g>
</g>
</g>
</g>
</g>
</g>
</g>
</g>
</g>
</g>
</g>
<defs>
<filter id="filter0_f_0_1" x="-14.3767" y="-404.377" width="839.753" height="672.753" filterUnits="userSpaceOnUse" color-interpolation-filters="sRGB">
<feFlood flood-opacity="0" result="BackgroundImageFix"/>
<feBlend mode="normal" in="SourceGraphic" in2="BackgroundImageFix" result="shape"/>
<feGaussianBlur stdDeviation="92.6883" result="effect1_foregroundBlur_0_1"/>
</filter>
<filter id="filter1_f_0_1" x="-465.377" y="-492.377" width="1111.75" height="848.753" filterUnits="userSpaceOnUse" color-interpolation-filters="sRGB">
<feFlood flood-opacity="0" result="BackgroundImageFix"/>
<feBlend mode="normal" in="SourceGraphic" in2="BackgroundImageFix" result="shape"/>
<feGaussianBlur stdDeviation="92.6883" result="effect1_foregroundBlur_0_1"/>
</filter>
<filter id="filter2_f_0_1" x="-391.377" y="-454.377" width="1038.75" height="800.753" filterUnits="userSpaceOnUse" color-interpolation-filters="sRGB">
<feFlood flood-opacity="0" result="BackgroundImageFix"/>
<feBlend mode="normal" in="SourceGraphic" in2="BackgroundImageFix" result="shape"/>
<feGaussianBlur stdDeviation="92.6883" result="effect1_foregroundBlur_0_1"/>
</filter>
<filter id="filter3_f_0_1" x="-743.826" y="-475.672" width="3120.61" height="676.936" filterUnits="userSpaceOnUse" color-interpolation-filters="sRGB">
<feFlood flood-opacity="0" result="BackgroundImageFix"/>
<feBlend mode="normal" in="SourceGraphic" in2="BackgroundImageFix" result="shape"/>
<feGaussianBlur stdDeviation="58" result="effect1_foregroundBlur_0_1"/>
</filter>
<filter id="filter4_f_0_1" x="-743.826" y="-475.672" width="3120.61" height="676.936" filterUnits="userSpaceOnUse" color-interpolation-filters="sRGB">
<feFlood flood-opacity="0" result="BackgroundImageFix"/>
<feBlend mode="normal" in="SourceGraphic" in2="BackgroundImageFix" result="shape"/>
<feGaussianBlur stdDeviation="58" result="effect1_foregroundBlur_0_1"/>
</filter>
<clipPath id="clip0_0_1">
<rect width="1440" height="7348" fill="white" transform="translate(-102 -7128)"/>
</clipPath>
</defs>
</svg>
