<svg width="21" height="24" viewBox="0 0 21 24" fill="none" xmlns="http://www.w3.org/2000/svg">
<path d="M19.6912 13.0928C20.7278 9.75076 19.928 5.95838 17.2917 3.3114C14.9573 0.96866 11.7293 0.0697318 8.70961 0.616558C6.80317 0.960518 5.04423 1.87333 3.66222 3.23592C3.63626 3.26062 3.61087 3.28611 3.58472 3.3114C1.8599 5.03854 0.849068 7.35642 0.754883 9.80036V21.0267C1.63709 21.8236 2.6136 22.5084 3.66241 23.0658V10.3694V10.3554C3.65957 10.2464 3.65957 10.1375 3.66241 10.0285V10.0153C3.7051 8.27155 4.41533 6.61134 5.64552 5.37965C5.74176 5.28277 5.84025 5.18959 5.941 5.10011C7.25972 3.92592 8.98213 3.31363 10.743 3.39309C12.5038 3.47254 14.1645 4.2375 15.373 5.52572C16.5815 6.81395 17.2427 8.52412 17.2163 10.2936C17.1899 12.063 16.478 13.7525 15.2317 15.0039C13.4644 16.7782 10.9642 17.3684 8.70981 16.7741V14.3641C10.3416 15.0449 12.293 14.7201 13.6208 13.3869C15.378 11.6227 15.378 8.76234 13.6208 6.99814C12.9993 6.37388 12.2093 5.94609 11.3484 5.76762C10.4874 5.58916 9.59326 5.66784 8.77635 5.99394C7.95945 6.32005 7.2556 6.87929 6.75178 7.60258C6.24795 8.32586 5.96622 9.18149 5.94139 10.0638V18.8149C6.81071 19.2721 7.74437 19.5935 8.71019 19.7681C11.7301 20.3146 14.9583 19.4166 17.2923 17.0733C18.4024 15.962 19.2258 14.5957 19.6912 13.0928ZM9.21474 11.4208C8.90991 11.1155 8.72975 10.7068 8.70961 10.275V10.27C8.70709 10.218 8.70709 10.1657 8.70961 10.1143V10.1093C8.72863 9.71133 8.88327 9.33203 9.14765 9.03492C9.41202 8.73782 9.77006 8.54095 10.1618 8.4773C10.5535 8.41365 10.9551 8.48709 11.2993 8.68531C11.6436 8.88354 11.9095 9.19451 12.0525 9.56612C12.1956 9.93773 12.2071 10.3474 12.0852 10.7265C11.9632 11.1057 11.7152 11.4312 11.3826 11.6486C11.0501 11.866 10.6533 11.9621 10.2586 11.9207C9.86392 11.8793 9.49539 11.7031 9.21474 11.4214V11.4208Z" fill="#02C394"/>
</svg>
