<svg width="24" height="25" viewBox="0 0 24 25" fill="none" xmlns="http://www.w3.org/2000/svg">
<rect width="24" height="25" fill="#1E1E1E"/>
<g id="Hero Section-pp" clip-path="url(#clip0_0_1)">
<rect width="1440" height="7348" transform="translate(-150 -7128)" fill="#081716"/>
<g id="Join Network">
</g>
<g id="Footer">
<rect id="Rectangle 469" x="-153" y="-535" width="1447" height="755" fill="#091817"/>
<g id="Group 170">
<g id="Group 111">
<g id="Group 91">
<g id="Ellipse 6" filter="url(#filter0_f_0_1)">
<path d="M592 -68C592 15.395 487.011 83 357.5 83C227.989 83 123 15.395 123 -68C123 -151.395 227.989 -219 357.5 -219C487.011 -219 592 -151.395 592 -68Z" fill="#02C394"/>
</g>
<g id="Ellipse 16" filter="url(#filter1_f_0_1)">
<path d="M413 -68C413 63.9961 247.122 171 42.5 171C-162.122 171 -328 63.9961 -328 -68C-328 -199.996 -162.122 -307 42.5 -307C247.122 -307 413 -199.996 413 -68Z" fill="#02C394"/>
</g>
<g id="Ellipse 19" filter="url(#filter2_f_0_1)">
<path d="M414 -54C414 64.7412 264.463 161 80 161C-104.463 161 -254 64.7412 -254 -54C-254 -172.741 -104.463 -269 80 -269C264.463 -269 414 -172.741 414 -54Z" fill="#CBFFF2"/>
</g>
</g>
<g id="Vector 13" filter="url(#filter3_f_0_1)">
<path d="M-255.665 -47.7732L-675.826 -187.385L-563.716 -210.555C-337.476 -156.294 133.791 -38.1488 208.935 0.348419C302.866 48.47 777.567 23.5181 1097.74 23.5181C1353.87 23.5181 1799.69 -130.946 1990.58 -208.179L2212.78 -359.672C2197.29 -261.845 2004.11 -44.5651 1355.29 41.935C706.463 128.435 258.089 65.6988 115.005 23.5181L-255.665 -47.7732Z" fill="#02C394"/>
</g>
<g id="Vector 14" filter="url(#filter4_f_0_1)">
<path d="M-255.665 -47.7732L-675.826 -187.385L-563.716 -210.555C-337.476 -156.294 133.791 -38.1489 208.935 0.348412C302.866 48.47 777.567 23.5181 1097.74 23.5181C1353.87 23.5181 1799.69 -130.946 1990.58 -208.179L2212.78 -359.673C2197.29 -261.845 2004.11 -44.5651 1355.29 41.935C706.463 128.435 258.089 65.6988 115.005 23.5181L-255.665 -47.7732Z" fill="white" fill-opacity="0.4"/>
</g>
</g>
<g id="Group 162">
<g id="Group 169">
<path id="Vector 86" d="M-158.897 -266.5C-285.128 -266.5 -158.897 -266.5 -158.897 -266.5V-266.5C-141.308 -266.5 -118.816 -266.5 -90.3969 -266.5C543.604 -266.5 357 -121 870.604 -121C1130.6 -121 1296.5 -266.5 1296.5 -266.5V220H-158.897V-266.5Z" fill="#081716"/>
<g id="Frame 52314">
<g id="Frame 47434">
<g id="Frame 52324">
<g id="Frame 350">
<g id="Credits">
<g id="Frame 52313">
<g id="Medium">
<g id="Group">
<path id="Vector" d="M13.5373 12.6045C13.5373 16.3684 10.5069 19.4196 6.76866 19.4196C3.03042 19.4196 0 16.3684 0 12.6045C0 8.84066 3.03042 5.78943 6.76866 5.78943C10.5068 5.78943 13.5373 8.84066 13.5373 12.6045Z" fill="#679F8E"/>
<path id="Vector_2" d="M20.963 12.6045C20.963 16.1476 19.4478 19.0198 17.5787 19.0198C15.7096 19.0198 14.1943 16.1476 14.1943 12.6045C14.1943 9.0615 15.7096 6.18933 17.5787 6.18933C19.4478 6.18933 20.963 9.0615 20.963 12.6045Z" fill="#679F8E"/>
<path id="Vector_3" d="M23.9997 12.6046C23.9997 15.779 23.4668 18.3523 22.8094 18.3523C22.152 18.3523 21.6191 15.779 21.6191 12.6046C21.6191 9.43016 22.152 6.85681 22.8094 6.85681C23.4668 6.85681 23.9997 9.43016 23.9997 12.6046Z" fill="#679F8E"/>
</g>
</g>
</g>
</g>
</g>
</g>
</g>
</g>
</g>
</g>
</g>
</g>
</g>
<defs>
<filter id="filter0_f_0_1" x="-62.3767" y="-404.377" width="839.753" height="672.753" filterUnits="userSpaceOnUse" color-interpolation-filters="sRGB">
<feFlood flood-opacity="0" result="BackgroundImageFix"/>
<feBlend mode="normal" in="SourceGraphic" in2="BackgroundImageFix" result="shape"/>
<feGaussianBlur stdDeviation="92.6883" result="effect1_foregroundBlur_0_1"/>
</filter>
<filter id="filter1_f_0_1" x="-513.377" y="-492.377" width="1111.75" height="848.753" filterUnits="userSpaceOnUse" color-interpolation-filters="sRGB">
<feFlood flood-opacity="0" result="BackgroundImageFix"/>
<feBlend mode="normal" in="SourceGraphic" in2="BackgroundImageFix" result="shape"/>
<feGaussianBlur stdDeviation="92.6883" result="effect1_foregroundBlur_0_1"/>
</filter>
<filter id="filter2_f_0_1" x="-439.377" y="-454.377" width="1038.75" height="800.753" filterUnits="userSpaceOnUse" color-interpolation-filters="sRGB">
<feFlood flood-opacity="0" result="BackgroundImageFix"/>
<feBlend mode="normal" in="SourceGraphic" in2="BackgroundImageFix" result="shape"/>
<feGaussianBlur stdDeviation="92.6883" result="effect1_foregroundBlur_0_1"/>
</filter>
<filter id="filter3_f_0_1" x="-791.826" y="-475.672" width="3120.61" height="676.936" filterUnits="userSpaceOnUse" color-interpolation-filters="sRGB">
<feFlood flood-opacity="0" result="BackgroundImageFix"/>
<feBlend mode="normal" in="SourceGraphic" in2="BackgroundImageFix" result="shape"/>
<feGaussianBlur stdDeviation="58" result="effect1_foregroundBlur_0_1"/>
</filter>
<filter id="filter4_f_0_1" x="-791.826" y="-475.672" width="3120.61" height="676.936" filterUnits="userSpaceOnUse" color-interpolation-filters="sRGB">
<feFlood flood-opacity="0" result="BackgroundImageFix"/>
<feBlend mode="normal" in="SourceGraphic" in2="BackgroundImageFix" result="shape"/>
<feGaussianBlur stdDeviation="58" result="effect1_foregroundBlur_0_1"/>
</filter>
<clipPath id="clip0_0_1">
<rect width="1440" height="7348" fill="white" transform="translate(-150 -7128)"/>
</clipPath>
</defs>
</svg>
