<svg width="170" height="169" viewBox="0 0 170 169" fill="none" xmlns="http://www.w3.org/2000/svg">
<g clip-path="url(#clip0_1138_341)">
<path d="M158.938 169H102.604C96.7707 169 92.0413 164.271 92.0413 158.437V66.8962C92.0413 61.0619 96.7707 56.3337 102.604 56.3337H158.938C164.771 56.3337 169.5 61.0619 169.5 66.8962V158.437C169.5 164.271 164.771 169 158.938 169ZM102.604 63.375C100.659 63.375 99.0838 64.9519 99.0838 66.8962V158.437C99.0838 160.382 100.659 161.959 102.604 161.959H158.938C160.882 161.959 162.459 160.382 162.459 158.437V66.8962C162.459 64.9519 160.882 63.375 158.938 63.375H102.604Z" fill="#02C394"/>
<path d="M123.729 147.875H137.813V154.916H123.729V147.875Z" fill="#02C394"/>
<path d="M85 119.709H11.0625C5.2294 119.709 0.5 114.979 0.5 109.146V10.5625C0.5 4.7294 5.2294 0 11.0625 0H137.812C143.646 0 148.375 4.7294 148.375 10.5625V49.2912H141.334V10.5625C141.334 8.61813 139.757 7.04124 137.812 7.04124H11.0625C9.11813 7.04124 7.54124 8.61813 7.54124 10.5625V109.146C7.54124 111.091 9.11813 112.666 11.0625 112.666H85V119.709Z" fill="#02C394"/>
<path d="M42.75 116.188H49.7912V133.791H42.75V116.188Z" fill="#02C394"/>
<path d="M32.1875 130.271H85V137.312H32.1875V130.271Z" fill="#02C394"/>
<path d="M21.625 31.6875H14.5837V24.6462C14.5837 18.8119 19.3119 14.0837 25.1462 14.0837H32.1875V21.125H25.1462C23.2019 21.125 21.625 22.7019 21.625 24.6462V31.6875Z" fill="#02C394"/>
<path d="M14.5837 38.7288H21.625V45.7713H14.5837V38.7288Z" fill="#02C394"/>
<path d="M148.375 70.4163H155.416V77.4588H148.375V70.4163Z" fill="#02C394"/>
<path d="M148.375 84.5H155.416V91.5412H148.375V84.5Z" fill="#02C394"/>
<path d="M134.291 70.4163H141.334V77.4588H134.291V70.4163Z" fill="#02C394"/>
<path d="M123.729 49.2912H116.688V35.2087C116.688 33.2644 115.111 31.6875 113.166 31.6875H77.9588C76.534 31.6875 75.2511 30.8288 74.7057 29.5136C74.1616 28.1984 74.462 26.6847 75.469 25.6777L86.0315 15.1152L91.0098 20.0935L86.457 24.6462H113.166C119.001 24.6462 123.729 29.3744 123.729 35.2087V49.2912Z" fill="#02C394"/>
<path d="M75.4677 30.6548L80.4473 25.6765L91.011 36.239L86.0315 41.2186L75.4677 30.6548Z" fill="#02C394"/>
<path d="M4.02124 88.0212H28.6662V95.0625H4.02124V88.0212Z" fill="#02C394"/>
</g>
<defs>
<clipPath id="clip0_1138_341">
<rect width="169" height="169" fill="white" transform="translate(0.5)"/>
</clipPath>
</defs>
</svg>
