<svg width="400" height="799" viewBox="0 0 400 799" fill="none" xmlns="http://www.w3.org/2000/svg">
<path opacity="0.6" d="M657.255 443.847C692.085 331.969 665.21 205.016 576.633 116.405C498.198 37.9801 389.738 7.88767 288.276 26.1932C224.221 37.7076 165.121 68.2647 118.686 113.879C117.813 114.706 116.96 115.559 116.082 116.405C58.1281 174.223 24.1646 251.816 21 333.63V709.444C50.6418 736.119 83.4524 759.044 118.692 777.704V352.678V352.209C118.597 348.562 118.597 344.915 118.692 341.269V340.826C120.126 282.452 143.99 226.874 185.324 185.642C188.557 182.399 191.867 179.28 195.252 176.284C239.56 136.977 297.433 116.48 356.596 119.14C415.759 121.8 471.56 147.408 512.165 190.532C552.769 233.657 574.984 290.906 574.097 350.14C573.211 409.374 549.293 465.933 507.416 507.822C448.037 567.219 364.029 586.977 288.283 567.082V486.404C343.112 509.196 408.676 498.321 453.29 453.694C512.331 394.635 512.331 298.881 453.29 239.823C432.409 218.925 405.865 204.604 376.938 198.63C348.01 192.656 317.966 195.29 290.519 206.206C263.071 217.123 239.422 235.844 222.494 260.057C205.565 284.27 196.099 312.913 195.265 342.447V635.401C224.474 650.705 255.845 661.465 288.296 667.31C389.764 685.603 498.23 655.543 576.652 577.098C613.951 539.897 641.618 494.159 657.255 443.847ZM305.248 387.876C295.006 377.655 288.953 363.975 288.276 349.519V349.35C288.192 347.611 288.192 345.86 288.276 344.14V343.971C288.915 330.649 294.111 317.952 302.994 308.006C311.877 298.06 323.907 291.47 337.069 289.339C350.231 287.208 363.725 289.667 375.29 296.303C386.856 302.938 395.791 313.348 400.597 325.788C405.404 338.228 405.791 351.943 401.694 364.634C397.596 377.326 389.262 388.223 378.089 395.501C366.916 402.779 353.583 405.995 340.322 404.61C327.061 403.225 314.678 397.324 305.248 387.895V387.876Z" stroke="url(#paint0_linear_156_291)" stroke-width="2"/>
<g style="mix-blend-mode:plus-lighter" filter="url(#filter0_f_156_291)">
<path d="M657.255 443.847C692.085 331.969 665.21 205.016 576.633 116.405C498.198 37.9801 389.738 7.88767 288.276 26.1932C224.221 37.7076 165.121 68.2647 118.686 113.879C117.813 114.706 116.96 115.559 116.082 116.405C58.1281 174.223 24.1646 251.816 21 333.63V709.444C50.6418 736.119 83.4524 759.044 118.692 777.704V352.678V352.209C118.597 348.562 118.597 344.915 118.692 341.269V340.826C120.126 282.452 143.99 226.874 185.324 185.642C188.557 182.399 191.867 179.28 195.252 176.284C239.56 136.977 297.433 116.48 356.596 119.14C415.759 121.8 471.56 147.408 512.165 190.532C552.769 233.657 574.984 290.906 574.097 350.14C573.211 409.374 549.293 465.933 507.416 507.822C448.037 567.219 364.029 586.977 288.283 567.082V486.404C343.112 509.196 408.676 498.321 453.29 453.694C512.331 394.635 512.331 298.881 453.29 239.823C432.409 218.925 405.865 204.604 376.938 198.63C348.01 192.656 317.966 195.29 290.519 206.206C263.071 217.123 239.422 235.844 222.494 260.057C205.565 284.27 196.099 312.913 195.265 342.447V635.401C224.474 650.705 255.845 661.465 288.296 667.31C389.764 685.603 498.23 655.543 576.652 577.098C613.951 539.897 641.618 494.159 657.255 443.847ZM305.248 387.876C295.006 377.655 288.953 363.975 288.276 349.519V349.35C288.192 347.611 288.192 345.86 288.276 344.14V343.971C288.915 330.649 294.111 317.952 302.994 308.006C311.877 298.06 323.907 291.47 337.069 289.339C350.231 287.208 363.725 289.667 375.29 296.303C386.856 302.938 395.791 313.348 400.597 325.788C405.404 338.228 405.791 351.943 401.694 364.634C397.596 377.326 389.262 388.223 378.089 395.501C366.916 402.779 353.583 405.995 340.322 404.61C327.061 403.225 314.678 397.324 305.248 387.895V387.876Z" stroke="url(#paint1_linear_156_291)"/>
</g>
<defs>
<filter id="filter0_f_156_291" x="0.6" y="0.6" width="691.8" height="797.834" filterUnits="userSpaceOnUse" color-interpolation-filters="sRGB">
<feFlood flood-opacity="0" result="BackgroundImageFix"/>
<feBlend mode="normal" in="SourceGraphic" in2="BackgroundImageFix" result="shape"/>
<feGaussianBlur stdDeviation="9.95" result="effect1_foregroundBlur_156_291"/>
</filter>
<linearGradient id="paint0_linear_156_291" x1="301.775" y1="249.136" x2="330.569" y2="558.211" gradientUnits="userSpaceOnUse">
<stop offset="0.130857" stop-color="#70FFCD"/>
<stop offset="1" stop-color="#A6E7DC"/>
</linearGradient>
<linearGradient id="paint1_linear_156_291" x1="301.775" y1="249.136" x2="330.569" y2="558.211" gradientUnits="userSpaceOnUse">
<stop offset="0.130857" stop-color="#70FFCD"/>
<stop offset="1" stop-color="#A6E7DC"/>
</linearGradient>
</defs>
</svg>
