<svg width="146" height="14" viewBox="0 0 146 14" fill="none" xmlns="http://www.w3.org/2000/svg">
<path d="M0.0398865 7.13562H11.3963C11.6374 7.13562 11.8484 7.09343 12.0293 7.00904C12.2101 6.91259 12.3548 6.79807 12.4633 6.66545C12.5838 6.53284 12.6742 6.38214 12.7345 6.21337C12.7948 6.04459 12.8249 5.88786 12.8249 5.74319V4.38693C12.8249 4.24226 12.7948 4.08554 12.7345 3.91676C12.6742 3.74798 12.5838 3.59728 12.4633 3.46467C12.3548 3.33206 12.2101 3.22356 12.0293 3.13917C11.8484 3.04272 11.6374 2.9945 11.3963 2.9945H0.0398865V0.67981H11.3963C11.9871 0.67981 12.5055 0.800367 12.9515 1.04148C13.4096 1.27054 13.7894 1.5659 14.0908 1.92757C14.3922 2.28924 14.6212 2.69311 14.7779 3.13917C14.9347 3.57317 15.013 3.98909 15.013 4.38693V5.74319C15.013 6.14103 14.9347 6.56298 14.7779 7.00904C14.6212 7.44304 14.3922 7.84088 14.0908 8.20255C13.7894 8.56422 13.4096 8.86561 12.9515 9.10673C12.5055 9.33578 11.9871 9.45031 11.3963 9.45031H2.22799V13.3202H0.0398865V7.13562Z" fill="white"/>
<path d="M17.52 10.2279C17.52 9.89035 17.5863 9.54073 17.7189 9.17906C17.8515 8.80534 18.0444 8.46778 18.2976 8.16638C18.5508 7.86499 18.8642 7.61785 19.2379 7.42496C19.6117 7.23207 20.0457 7.13562 20.5399 7.13562H27.7553V6.97287C27.7553 6.81615 27.7251 6.65943 27.6649 6.5027C27.6046 6.33392 27.5142 6.18323 27.3936 6.05061C27.2851 5.90595 27.1404 5.79142 26.9596 5.70703C26.7788 5.62264 26.5678 5.58044 26.3267 5.58044H18.8039V3.26575H26.3267C26.9174 3.26575 27.4358 3.38631 27.8819 3.62742C28.34 3.85648 28.7197 4.15184 29.0211 4.51352C29.3225 4.87519 29.5516 5.27302 29.7083 5.70703C29.865 6.14103 29.9434 6.56298 29.9434 6.97287V9.61307C29.9434 10.0109 29.865 10.4329 29.7083 10.8789C29.5516 11.3129 29.3225 11.7108 29.0211 12.0724C28.7197 12.4341 28.34 12.7355 27.8819 12.9766C27.4358 13.2057 26.9174 13.3202 26.3267 13.3202H20.5399C20.0457 13.3202 19.6117 13.2237 19.2379 13.0308C18.8642 12.838 18.5508 12.5908 18.2976 12.2894C18.0444 11.988 17.8515 11.6565 17.7189 11.2948C17.5863 10.9211 17.52 10.5655 17.52 10.2279ZM19.7081 10.2279C19.7081 10.3967 19.7744 10.5715 19.907 10.7523C20.0517 10.9211 20.2627 11.0055 20.5399 11.0055H26.3267C26.5919 11.0055 26.8149 10.9573 26.9958 10.8608C27.1766 10.7644 27.3213 10.6438 27.4298 10.4992C27.5503 10.3545 27.6347 10.1978 27.6829 10.029C27.7312 9.84815 27.7553 9.67937 27.7553 9.52265V9.45031H20.5399C20.2627 9.45031 20.0517 9.54073 19.907 9.72157C19.7744 9.89035 19.7081 10.0591 19.7081 10.2279Z" fill="white"/>
<path d="M32.7103 0.67981H34.8984V3.26575H37.4663V5.58044H34.8984V9.61307C34.8984 9.75773 34.9285 9.91446 34.9888 10.0832C35.0491 10.252 35.1395 10.4027 35.2601 10.5353C35.3806 10.6679 35.5313 10.7825 35.7122 10.8789C35.893 10.9633 36.0979 11.0055 36.327 11.0055H37.4663V13.3202H36.327C35.7363 13.3202 35.2118 13.2057 34.7537 12.9766C34.3077 12.7355 33.9339 12.4341 33.6326 12.0724C33.3312 11.7108 33.1021 11.3129 32.9454 10.8789C32.7887 10.4329 32.7103 10.0109 32.7103 9.61307V0.67981Z" fill="white"/>
<path d="M42.4921 0.67981V3.55509L42.6367 3.51892C43.0707 3.35014 43.4987 3.26575 43.9207 3.26575H49.1106C49.7014 3.26575 50.2197 3.38631 50.6658 3.62742C51.1239 3.85648 51.5037 4.15184 51.8051 4.51352C52.1065 4.87519 52.3355 5.27302 52.4922 5.70703C52.649 6.14103 52.7273 6.56298 52.7273 6.97287V13.3202H50.5392V6.97287C50.5392 6.81615 50.5091 6.65943 50.4488 6.5027C50.3885 6.33392 50.2981 6.18323 50.1776 6.05061C50.057 5.90595 49.9063 5.79142 49.7255 5.70703C49.5567 5.62264 49.3517 5.58044 49.1106 5.58044H43.9207C43.6916 5.58044 43.4866 5.62264 43.3058 5.70703C43.125 5.79142 42.9743 5.90595 42.8537 6.05061C42.7332 6.18323 42.6428 6.33392 42.5825 6.5027C42.5222 6.65943 42.4921 6.81615 42.4921 6.97287V13.3202H40.304V0.67981H42.4921Z" fill="white"/>
<path d="M55.4913 7.13562H66.8477C67.0888 7.13562 67.2998 7.09343 67.4806 7.00904C67.6615 6.91259 67.8062 6.79807 67.9146 6.66545C68.0352 6.53284 68.1256 6.38214 68.1859 6.21337C68.2462 6.04459 68.2763 5.88786 68.2763 5.74319V4.38693C68.2763 4.24226 68.2462 4.08554 68.1859 3.91676C68.1256 3.74798 68.0352 3.59728 67.9146 3.46467C67.8062 3.33206 67.6615 3.22356 67.4806 3.13917C67.2998 3.04272 67.0888 2.9945 66.8477 2.9945H55.4913V0.67981H66.8477C67.4385 0.67981 67.9568 0.800367 68.4029 1.04148C68.861 1.27054 69.2408 1.5659 69.5422 1.92757C69.8436 2.28924 70.0726 2.69311 70.2293 3.13917C70.3861 3.57317 70.4644 3.98909 70.4644 4.38693V5.74319C70.4644 6.14103 70.3861 6.56298 70.2293 7.00904C70.0726 7.44304 69.8436 7.84088 69.5422 8.20255C69.2408 8.56422 68.861 8.86561 68.4029 9.10673C67.9568 9.33578 67.4385 9.45031 66.8477 9.45031H57.6794V13.3202H55.4913V7.13562Z" fill="white"/>
<path d="M73.098 3.26575H75.2861V9.61307C75.2861 9.75773 75.3162 9.91446 75.3765 10.0832C75.4368 10.252 75.5272 10.4027 75.6478 10.5353C75.7683 10.6679 75.919 10.7825 76.0998 10.8789C76.2807 10.9633 76.4856 11.0055 76.7147 11.0055H81.9046C82.1458 11.0055 82.3507 10.9633 82.5195 10.8789C82.7003 10.7825 82.851 10.6679 82.9716 10.5353C83.0921 10.4027 83.1825 10.252 83.2428 10.0832C83.3031 9.91446 83.3332 9.75773 83.3332 9.61307V3.26575H85.5213V9.61307C85.5213 10.0109 85.443 10.4329 85.2863 10.8789C85.1295 11.3129 84.9005 11.7108 84.5991 12.0724C84.2977 12.4341 83.9179 12.7355 83.4598 12.9766C83.0138 13.2057 82.4954 13.3202 81.9046 13.3202H76.7147C76.1239 13.3202 75.5995 13.2057 75.1414 12.9766C74.6954 12.7355 74.3216 12.4341 74.0202 12.0724C73.7188 11.7108 73.4898 11.3129 73.3331 10.8789C73.1763 10.4329 73.098 10.0109 73.098 9.61307V3.26575Z" fill="white"/>
<path d="M88.2853 0.67981H90.4734V9.61307C90.4734 9.75773 90.4975 9.90843 90.5457 10.0652C90.606 10.2098 90.6844 10.3485 90.7808 10.4811C90.8893 10.6137 91.0219 10.7282 91.1787 10.8247C91.3354 10.9211 91.5162 10.9814 91.7212 11.0055V13.3202C91.1546 13.2961 90.6542 13.1635 90.2202 12.9223C89.7983 12.6812 89.4426 12.3798 89.1533 12.0182C88.864 11.6565 88.647 11.2647 88.5023 10.8427C88.3576 10.4208 88.2853 10.0109 88.2853 9.61307V0.67981Z" fill="white"/>
<path d="M93.8203 6.35803C93.8203 6.02047 93.8866 5.67086 94.0192 5.30919C94.1518 4.93546 94.3447 4.5979 94.5979 4.29651C94.851 3.99512 95.1645 3.74798 95.5382 3.55509C95.9119 3.3622 96.3459 3.26575 96.8402 3.26575H104.96V5.58044H96.8402C96.5629 5.58044 96.358 5.67086 96.2254 5.85169C96.0928 6.02047 96.0265 6.18925 96.0265 6.35803C96.0265 6.52681 96.0928 6.70162 96.2254 6.88246C96.358 7.05123 96.5629 7.13562 96.8402 7.13562H103.224C103.718 7.13562 104.152 7.23207 104.526 7.42496C104.899 7.61785 105.213 7.86499 105.466 8.16638C105.719 8.46778 105.912 8.80534 106.045 9.17906C106.177 9.54073 106.244 9.89035 106.244 10.2279C106.244 10.5655 106.177 10.9211 106.045 11.2948C105.912 11.6565 105.719 11.988 105.466 12.2894C105.213 12.5908 104.899 12.838 104.526 13.0308C104.152 13.2237 103.718 13.3202 103.224 13.3202H95.1042V11.0055H103.224C103.501 11.0055 103.706 10.9211 103.839 10.7523C103.983 10.5715 104.056 10.3967 104.056 10.2279C104.056 10.0591 103.983 9.89035 103.839 9.72157C103.706 9.54073 103.501 9.45031 103.224 9.45031H96.8402C96.3459 9.45031 95.9119 9.35387 95.5382 9.16098C95.1645 8.96809 94.851 8.72095 94.5979 8.41955C94.3447 8.11816 94.1518 7.78663 94.0192 7.42496C93.8866 7.05123 93.8203 6.69559 93.8203 6.35803Z" fill="white"/>
<path d="M118.103 3.26575C118.598 3.26575 119.032 3.3622 119.405 3.55509C119.779 3.74798 120.092 3.99512 120.346 4.29651C120.599 4.5979 120.792 4.93546 120.924 5.30919C121.057 5.67086 121.123 6.02047 121.123 6.35803C121.123 6.69559 121.057 7.05123 120.924 7.42496C120.792 7.78663 120.599 8.11816 120.346 8.41955C120.092 8.72095 119.779 8.96809 119.405 9.16098C119.032 9.35387 118.598 9.45031 118.103 9.45031H110.888V9.61307C110.888 9.75773 110.918 9.91446 110.978 10.0832C111.039 10.252 111.129 10.4027 111.25 10.5353C111.37 10.6679 111.521 10.7825 111.702 10.8789C111.883 10.9633 112.088 11.0055 112.317 11.0055H119.839V13.3202H112.317C111.726 13.3202 111.201 13.2057 110.743 12.9766C110.297 12.7355 109.924 12.4341 109.622 12.0724C109.321 11.7108 109.092 11.3129 108.935 10.8789C108.778 10.4329 108.7 10.0109 108.7 9.61307V6.97287C108.7 6.56298 108.778 6.14103 108.935 5.70703C109.092 5.27302 109.321 4.87519 109.622 4.51352C109.924 4.15184 110.297 3.85648 110.743 3.62742C111.201 3.38631 111.726 3.26575 112.317 3.26575H118.103ZM118.103 7.13562C118.381 7.13562 118.586 7.05123 118.718 6.88246C118.863 6.70162 118.935 6.52681 118.935 6.35803C118.935 6.18925 118.863 6.02047 118.718 5.85169C118.586 5.67086 118.381 5.58044 118.103 5.58044H112.317C112.063 5.58044 111.846 5.62866 111.666 5.72511C111.485 5.82156 111.334 5.94211 111.214 6.08678C111.105 6.23145 111.021 6.3942 110.96 6.57504C110.912 6.74381 110.888 6.90657 110.888 7.06329V7.13562H118.103Z" fill="white"/>
<path d="M123.64 11.0055H125.828V13.3202H123.64V11.0055Z" fill="white"/>
<path d="M128.582 10.2279C128.582 9.89035 128.648 9.54073 128.781 9.17906C128.913 8.80534 129.106 8.46778 129.359 8.16638C129.612 7.86499 129.926 7.61785 130.3 7.42496C130.673 7.23207 131.107 7.13562 131.602 7.13562H138.817V6.97287C138.817 6.81615 138.787 6.65943 138.727 6.5027C138.666 6.33392 138.576 6.18323 138.455 6.05061C138.347 5.90595 138.202 5.79142 138.021 5.70703C137.84 5.62264 137.63 5.58044 137.388 5.58044H129.866V3.26575H137.388C137.979 3.26575 138.498 3.38631 138.944 3.62742C139.402 3.85648 139.781 4.15184 140.083 4.51352C140.384 4.87519 140.613 5.27302 140.77 5.70703C140.927 6.14103 141.005 6.56298 141.005 6.97287V9.61307C141.005 10.0109 140.927 10.4329 140.77 10.8789C140.613 11.3129 140.384 11.7108 140.083 12.0724C139.781 12.4341 139.402 12.7355 138.944 12.9766C138.498 13.2057 137.979 13.3202 137.388 13.3202H131.602C131.107 13.3202 130.673 13.2237 130.3 13.0308C129.926 12.838 129.612 12.5908 129.359 12.2894C129.106 11.988 128.913 11.6565 128.781 11.2948C128.648 10.9211 128.582 10.5655 128.582 10.2279ZM130.77 10.2279C130.77 10.3967 130.836 10.5715 130.969 10.7523C131.113 10.9211 131.324 11.0055 131.602 11.0055H137.388C137.654 11.0055 137.877 10.9573 138.057 10.8608C138.238 10.7644 138.383 10.6438 138.491 10.4992C138.612 10.3545 138.696 10.1978 138.745 10.029C138.793 9.84815 138.817 9.67937 138.817 9.52265V9.45031H131.602C131.324 9.45031 131.113 9.54073 130.969 9.72157C130.836 9.89035 130.77 10.0591 130.77 10.2279Z" fill="white"/>
<path d="M143.772 3.26575H145.96V13.3202H143.772V3.26575ZM143.772 0.67981H145.96V2.01799H143.772V0.67981Z" fill="white"/>
</svg>
