<svg width="21" height="23" viewBox="0 0 21 23" fill="none" xmlns="http://www.w3.org/2000/svg">
<path d="M19.6914 12.6853C20.728 9.34329 19.9282 5.55091 17.2919 2.90392C14.9575 0.561189 11.7295 -0.337739 8.70979 0.209088C6.80336 0.553047 5.04441 1.46586 3.6624 2.82845C3.63644 2.85315 3.61106 2.87864 3.5849 2.90392C1.86008 4.63107 0.849252 6.94895 0.755066 9.39289V20.6193C1.63727 21.4161 2.61379 22.101 3.6626 22.6583V9.96189V9.94789C3.65976 9.83895 3.65976 9.73001 3.6626 9.62108V9.60785C3.70528 7.86408 4.41551 6.20387 5.64571 4.97218C5.74194 4.8753 5.84043 4.78212 5.94119 4.69264C7.2599 3.51845 8.98231 2.90616 10.7431 2.98561C12.504 3.06507 14.1647 3.83003 15.3732 5.11825C16.5817 6.40648 17.2428 8.11665 17.2165 9.88609C17.1901 11.6555 16.4782 13.3451 15.2319 14.5964C13.4646 16.3707 10.9644 16.9609 8.70999 16.3666V13.9566C10.3418 14.6374 12.2932 14.3126 13.621 12.9795C15.3782 11.2153 15.3782 8.35487 13.621 6.59067C12.9995 5.96641 12.2095 5.53862 11.3486 5.36015C10.4876 5.18168 9.59344 5.26037 8.77654 5.58647C7.95963 5.91258 7.25579 6.47182 6.75196 7.19511C6.24813 7.91839 5.9664 8.77402 5.94157 9.65629V18.4075C6.81089 18.8646 7.74456 19.186 8.71038 19.3607C11.7303 19.9071 14.9585 19.0091 17.2925 16.6658C18.4026 15.5545 19.226 14.1882 19.6914 12.6853ZM9.21492 11.0133C8.91009 10.708 8.72993 10.2994 8.70979 9.86755V9.86249C8.70728 9.81055 8.70728 9.75822 8.70979 9.70686V9.7018C8.72881 9.30386 8.88346 8.92456 9.14783 8.62745C9.41221 8.33035 9.77025 8.13348 10.162 8.06983C10.5537 8.00618 10.9553 8.07962 11.2995 8.27784C11.6437 8.47607 11.9097 8.78703 12.0527 9.15865C12.1958 9.53026 12.2073 9.93994 12.0853 10.3191C11.9634 10.6982 11.7154 11.0237 11.3828 11.2411C11.0503 11.4585 10.6535 11.5546 10.2588 11.5132C9.8641 11.4719 9.49557 11.2956 9.21492 11.0139V11.0133Z" fill="#02C394"/>
</svg>
