<svg width="128" height="129" viewBox="0 0 128 129" fill="none" xmlns="http://www.w3.org/2000/svg">
<g opacity="0.7" clip-path="url(#clip0_246_253)">
<path d="M63.5699 78.55L50.588 77.0825V70.1286C56.9605 66.5766 61.3935 59.9493 61.8662 52.2672H64.0675C67.3172 52.2672 69.9611 49.6233 69.9611 46.3736V42.3482C69.9611 39.7513 68.2721 37.5431 65.9353 36.7597V31.8316C65.9353 24.885 63.2291 18.3501 58.314 13.4292C53.3948 8.51549 46.8596 5.80933 39.9128 5.80933C34.6576 5.80933 29.5922 7.37026 25.2636 10.3235C24.4113 10.9048 24.1916 12.067 24.7732 12.9193C25.3545 13.7714 26.5162 13.9913 27.369 13.4095C31.0745 10.8814 35.4121 9.54515 39.9128 9.54515C45.8626 9.54515 51.4598 11.863 55.6721 16.0706C59.8814 20.2844 62.1992 25.8818 62.1992 31.8313V36.4541H60.0415C59.0099 36.4541 58.1735 37.2905 58.1735 38.3222V43.2807L57.5844 42.2356C57.2763 41.6886 56.7114 41.3329 56.0853 41.2891C55.968 41.2809 44.3104 40.3842 41.6672 33.1988C41.3968 32.464 40.6971 31.9758 39.914 31.9758C39.1309 31.9758 38.4313 32.464 38.1608 33.1988C35.5174 40.3842 23.8601 41.2809 23.745 41.2889C23.1171 41.3312 22.5525 41.6871 22.2436 42.2353L21.6543 43.2809V38.3222C21.6543 37.2905 20.8182 36.4541 19.7863 36.4541H17.6291V31.8313C17.6291 27.227 19.0201 22.8102 21.6516 19.0584C22.2439 18.2138 22.0396 17.0489 21.1948 16.4566C20.3499 15.8644 19.1853 16.0688 18.5927 16.9132C15.5184 21.2969 13.893 26.4554 13.893 31.8313V36.7595C11.5562 37.5426 9.86701 39.7511 9.86701 42.3479V46.3734C9.86701 49.623 12.5109 52.2669 15.7605 52.2669H17.9616C18.4343 59.9491 22.8673 66.5764 29.2401 70.1284V77.0822L16.2582 78.5497C7.16458 79.5782 0.306885 87.2545 0.306885 96.4064V123.915C0.306885 126.333 2.27356 128.299 4.6908 128.299H75.1375C77.5547 128.299 79.5214 126.333 79.5214 123.915V96.4064C79.5214 87.2545 72.6637 79.5782 63.5699 78.55ZM61.9098 40.1907H64.0675C65.2571 40.1907 66.2252 41.1586 66.2252 42.3482V46.3736C66.2252 47.5632 65.2571 48.5311 64.0675 48.5311H61.9098V40.1907ZM13.6033 46.3739V42.3484C13.6033 41.1588 14.5715 40.1909 15.761 40.1909H17.9185V48.5316H15.761C14.5715 48.5314 13.6033 47.5635 13.6033 46.3739ZM21.6543 50.9025V50.8896L25.0238 44.9123C27.8664 44.5559 35.7949 43.0999 39.914 37.681C44.0332 43.0999 51.9616 44.5559 54.8043 44.9123L58.1735 50.8896V50.9025C58.1735 60.971 49.9823 69.1622 39.914 69.1622C29.8458 69.1622 21.6543 60.971 21.6543 50.9025ZM39.9143 72.8981C42.3375 72.8981 44.6701 72.503 46.8522 71.776V78.7512C46.8522 82.5767 43.7398 85.6891 39.9143 85.6891C36.0888 85.6891 32.9764 82.5767 32.9764 78.7512V71.776C35.1585 72.5033 37.4911 72.8981 39.9143 72.8981ZM4.04296 123.915V96.4064C4.04296 89.1572 9.47497 83.0769 16.6784 82.2624L29.4433 80.8195C29.8052 82.6547 30.6396 84.3212 31.813 85.6896H19.7863C17.3693 85.6896 15.4029 87.6561 15.4029 90.0733V98.9873C15.4029 100.019 16.239 100.855 17.2709 100.855C18.3026 100.855 19.139 100.019 19.139 98.9873V90.0733C19.139 89.7161 19.4294 89.4257 19.7865 89.4257H60.0428C60.3999 89.4257 60.6906 89.7161 60.6906 90.0733V116.513H19.1387V107.705C19.1387 106.673 18.3026 105.837 17.2707 105.837C16.239 105.837 15.4026 106.673 15.4026 107.705V116.537C13.9867 116.715 12.8865 117.924 12.8865 119.387V122.406C12.8865 123.168 13.0332 123.895 13.2975 124.564H4.6908C4.33363 124.563 4.04296 124.273 4.04296 123.915ZM16.6226 122.406V120.248H63.206V122.406C63.206 123.595 62.2378 124.563 61.0483 124.563H18.7803C17.5905 124.564 16.6226 123.596 16.6226 122.406ZM75.7856 123.915C75.7856 124.273 75.4949 124.563 75.1375 124.563H66.5308C66.7949 123.895 66.9418 123.167 66.9418 122.406V119.387C66.9418 117.924 65.8419 116.715 64.4262 116.537V90.073C64.4262 87.6561 62.4598 85.6894 60.0425 85.6894H48.0153C49.189 84.321 50.0234 82.6547 50.385 80.8193L63.1499 82.2622C70.3533 83.0764 75.7853 89.157 75.7853 96.4062V123.915H75.7856Z" fill="url(#paint0_linear_246_253)"/>
<path d="M93.0637 15.5088C92.334 14.7793 91.1514 14.7793 90.4218 15.5088L84.7288 21.2019C83.9993 21.9314 83.9993 23.1142 84.7288 23.8435L90.4218 29.5365C90.7867 29.9012 91.2649 30.0838 91.7429 30.0838C92.2209 30.0838 92.6991 29.9014 93.064 29.5365C93.7935 28.807 93.7935 27.6242 93.064 26.8949L88.6918 22.5227L93.064 18.1505C93.793 17.4209 93.793 16.2383 93.0637 15.5088Z" fill="url(#paint1_linear_246_253)"/>
<path d="M109.039 29.5365C109.404 29.9012 109.882 30.0838 110.36 30.0838C110.838 30.0838 111.317 29.9014 111.681 29.5365L117.375 23.8435C118.104 23.114 118.104 21.9311 117.375 21.2019L111.681 15.5088C110.951 14.7793 109.769 14.7793 109.039 15.5088C108.31 16.2383 108.31 17.4212 109.039 18.1505L113.412 22.5227L109.039 26.8949C108.31 27.6242 108.31 28.807 109.039 29.5365Z" fill="url(#paint2_linear_246_253)"/>
<path d="M100.485 16.4262L97.9692 27.812C97.7466 28.8193 98.3827 29.8166 99.3902 30.039C99.5259 30.0691 99.6614 30.0833 99.7949 30.0833C100.652 30.0833 101.425 29.4895 101.617 28.618L104.133 17.2322C104.356 16.225 103.72 15.2277 102.712 15.0053C101.705 14.7829 100.708 15.419 100.485 16.4262Z" fill="url(#paint3_linear_246_253)"/>
<path d="M87.1488 54.3215L101.219 44.3868C101.33 44.3088 101.461 44.2675 101.598 44.2675H107.513C108.545 44.2675 109.381 43.4311 109.381 42.3995C109.381 41.3678 108.545 40.5314 107.513 40.5314H101.598C100.689 40.5314 99.8161 40.8071 99.0684 41.3317L85.558 50.8709V43.4057C85.558 41.8209 84.2685 40.5314 82.6837 40.5314H81.1745C79.4303 40.5314 78.0113 39.1115 78.0113 37.3657V7.6776C78.0113 5.93335 79.4303 4.51439 81.1745 4.51439H120.928C122.672 4.51439 124.091 5.93335 124.091 7.6776V37.366C124.091 39.1115 122.672 40.5317 120.928 40.5317H116.23C115.199 40.5317 114.362 41.368 114.362 42.3997C114.362 43.4314 115.198 44.2677 116.23 44.2677H120.928C124.732 44.2677 127.827 41.1718 127.827 37.3662V7.6776C127.827 3.87353 124.732 0.778564 120.928 0.778564H81.175C77.3707 0.778564 74.276 3.87353 74.276 7.6776V37.366C74.276 41.1715 77.3707 44.2675 81.175 44.2675H81.8226V51.5626C81.8226 52.8281 82.5208 53.9763 83.6441 54.5594C84.1363 54.8147 84.67 54.941 85.2018 54.941C85.8847 54.941 86.565 54.7325 87.1488 54.3215Z" fill="url(#paint4_linear_246_253)"/>
<path d="M123.859 78.6651C123.831 78.6352 123.819 78.5884 123.824 78.5371C123.892 77.899 123.927 77.2521 123.927 76.6153C123.927 75.9784 123.892 75.3318 123.824 74.6942C123.819 74.6424 123.831 74.5955 123.858 74.5659L126.801 71.3711C127.957 70.1157 128.16 68.2793 127.307 66.8016L125.068 62.9235C124.215 61.4455 122.524 60.7033 120.857 61.0772L116.62 62.0279C116.581 62.0368 116.534 62.0241 116.492 61.993C115.455 61.2363 114.335 60.5892 113.162 60.0697C113.115 60.049 113.081 60.0151 113.069 59.9765L111.774 55.833C111.265 54.2043 109.777 53.1099 108.07 53.1099H103.592C101.886 53.1099 100.397 54.204 99.8879 55.8332L98.5932 59.976C98.5812 60.0146 98.5471 60.0488 98.5005 60.0694C97.3276 60.5892 96.2073 61.2366 95.1707 61.993C95.1283 62.0239 95.082 62.0363 95.0419 62.0279L90.8047 61.0772C89.1394 60.7033 87.4477 61.4456 86.5944 62.9233L84.3552 66.8013C83.5019 68.2791 83.7054 70.1155 84.8616 71.3711L87.8036 74.5654C87.831 74.5953 87.8435 74.6421 87.8383 74.6934C87.7698 75.3315 87.7349 75.9784 87.7349 76.6153C87.7349 77.2521 87.7698 77.8987 87.8383 78.5364C87.8435 78.5882 87.8313 78.635 87.8039 78.6646L84.8616 81.8595C83.7054 83.1148 83.5019 84.9512 84.3552 86.4289L86.5944 90.3072C87.448 91.785 89.1402 92.5267 90.8047 92.1534L95.0424 91.2027C95.0808 91.1937 95.1283 91.2066 95.1704 91.2373C96.2073 91.994 97.3276 92.6413 98.5 93.1609C98.5471 93.1818 98.5812 93.2159 98.5932 93.254L99.8879 97.3978C100.397 99.0265 101.885 100.121 103.592 100.121H108.07C109.777 100.121 111.265 99.0267 111.774 97.3978L113.069 93.254C113.081 93.2159 113.115 93.182 113.162 93.1611C114.335 92.6413 115.455 91.9942 116.492 91.2375C116.534 91.2066 116.581 91.1939 116.62 91.2029L120.857 92.1536C122.521 92.5275 124.214 91.7852 125.068 90.3075L127.307 86.4294C128.16 84.9517 127.957 83.1153 126.801 81.8597L123.859 78.6651ZM124.071 84.5609L121.832 88.4395C121.8 88.4943 121.738 88.5219 121.675 88.5082L117.438 87.5575C116.348 87.3127 115.202 87.5543 114.29 88.2193C113.467 88.8198 112.578 89.3331 111.648 89.7456C110.618 90.2021 109.836 91.0749 109.504 92.1397L108.209 96.283C108.19 96.3438 108.134 96.3848 108.07 96.3848H103.592C103.529 96.3848 103.473 96.3437 103.454 96.2832L102.159 92.1392C101.826 91.0749 101.045 90.2024 100.015 89.7456C99.0844 89.3334 98.1957 88.8198 97.3727 88.2195C96.694 87.7246 95.8853 87.4643 95.0668 87.4643C94.7854 87.4643 94.5029 87.4952 94.2245 87.5577L89.9873 88.5084C89.926 88.5221 89.862 88.4948 89.8301 88.4395L87.5909 84.5612C87.5591 84.5061 87.5668 84.4376 87.6099 84.3908L90.5524 81.1957C91.3083 80.3745 91.6732 79.2604 91.5529 78.1383C91.4984 77.632 91.471 77.1199 91.471 76.6158C91.471 76.1116 91.4984 75.5996 91.5529 75.0924C91.673 73.9711 91.3083 72.857 90.5521 72.0353L87.6099 68.8407C87.5668 68.7939 87.5591 68.7254 87.5909 68.6701L89.8301 64.7921C89.862 64.7368 89.926 64.7096 89.9873 64.7231L94.224 65.6738C95.3119 65.9176 96.4604 65.6773 97.3727 65.0118C98.1954 64.4115 99.0841 63.8982 100.015 63.4857C101.045 63.0291 101.826 62.1567 102.159 61.0916L103.454 56.9483C103.472 56.8875 103.528 56.8464 103.592 56.8464H108.07C108.134 56.8464 108.189 56.8875 108.209 56.9481L109.503 61.0914C109.836 62.1561 110.618 63.0289 111.648 63.4857C112.578 63.8982 113.467 64.4115 114.29 65.0118C115.201 65.6773 116.349 65.9186 117.438 65.6738L121.675 64.7231C121.738 64.7099 121.8 64.737 121.832 64.7921L124.071 68.6704C124.103 68.7254 124.096 68.7942 124.053 68.8407L121.11 72.0358C120.354 72.857 119.989 73.9711 120.109 75.0932C120.164 75.5996 120.191 76.1116 120.191 76.6158C120.191 77.1199 120.164 77.632 120.109 78.1391C119.989 79.2604 120.354 80.3745 121.11 81.1962L124.053 84.3908C124.096 84.4371 124.103 84.5056 124.071 84.5609Z" fill="url(#paint5_linear_246_253)"/>
<path d="M105.832 69.3384C101.82 69.3384 98.5551 72.603 98.5551 76.6155C98.5551 80.6283 101.82 83.8929 105.832 83.8929C109.845 83.8929 113.11 80.6283 113.11 76.6155C113.11 72.603 109.845 69.3384 105.832 69.3384ZM105.832 80.1571C103.88 80.1571 102.291 78.5685 102.291 76.6158C102.291 74.663 103.88 73.0745 105.832 73.0745C107.785 73.0745 109.373 74.663 109.373 76.6158C109.373 78.5682 107.785 80.1571 105.832 80.1571Z" fill="url(#paint6_linear_246_253)"/>
</g>
<defs>
<linearGradient id="paint0_linear_246_253" x1="39.9142" y1="5.80933" x2="39.9142" y2="128.299" gradientUnits="userSpaceOnUse">
<stop stop-color="white"/>
<stop offset="1" stop-color="#88B3AA"/>
</linearGradient>
<linearGradient id="paint1_linear_246_253" x1="88.8964" y1="14.9617" x2="88.8964" y2="30.0838" gradientUnits="userSpaceOnUse">
<stop stop-color="white"/>
<stop offset="1" stop-color="#88B3AA"/>
</linearGradient>
<linearGradient id="paint2_linear_246_253" x1="113.207" y1="14.9617" x2="113.207" y2="30.0838" gradientUnits="userSpaceOnUse">
<stop stop-color="white"/>
<stop offset="1" stop-color="#88B3AA"/>
</linearGradient>
<linearGradient id="paint3_linear_246_253" x1="101.051" y1="14.9609" x2="101.051" y2="30.0833" gradientUnits="userSpaceOnUse">
<stop stop-color="white"/>
<stop offset="1" stop-color="#88B3AA"/>
</linearGradient>
<linearGradient id="paint4_linear_246_253" x1="101.051" y1="0.778564" x2="101.051" y2="54.941" gradientUnits="userSpaceOnUse">
<stop stop-color="white"/>
<stop offset="1" stop-color="#88B3AA"/>
</linearGradient>
<linearGradient id="paint5_linear_246_253" x1="105.831" y1="53.1099" x2="105.831" y2="100.121" gradientUnits="userSpaceOnUse">
<stop stop-color="white"/>
<stop offset="1" stop-color="#88B3AA"/>
</linearGradient>
<linearGradient id="paint6_linear_246_253" x1="105.832" y1="69.3384" x2="105.832" y2="83.8929" gradientUnits="userSpaceOnUse">
<stop stop-color="white"/>
<stop offset="1" stop-color="#88B3AA"/>
</linearGradient>
<clipPath id="clip0_246_253">
<rect width="127.525" height="127.525" fill="white" transform="translate(0.307007 0.776611)"/>
</clipPath>
</defs>
</svg>
