<svg width="129" height="128" viewBox="0 0 129 128" fill="none" xmlns="http://www.w3.org/2000/svg">
<g opacity="0.7" clip-path="url(#clip0_246_267)">
<path d="M14.4535 109.396C9.71615 113.546 6.99902 119.536 6.99902 125.831C6.99902 126.863 7.83541 127.699 8.86706 127.699C9.89872 127.699 10.7351 126.863 10.7351 125.831C10.7351 120.613 12.9877 115.647 16.9151 112.206C17.6912 111.527 17.7691 110.346 17.0894 109.571C16.4097 108.794 15.2296 108.716 14.4535 109.396Z" fill="url(#paint0_linear_246_267)"/>
<path d="M106.839 105.013L100.62 103.038V99.6663C100.62 97.2137 99.0491 95.0672 96.7118 94.3252L94.45 93.6069C93.6709 93.3595 93.1476 92.6442 93.1476 91.8268V86.862C94.8059 85.1974 96.4365 83.3792 98.0381 81.4058C99.6952 79.3639 100.865 76.9295 101.42 74.3663C102.6 68.9164 104.356 56.0404 104.356 42.9041C104.356 29.7366 100.323 18.7434 92.6925 11.1125C85.64 4.05908 75.6401 0.174561 64.5352 0.174561C52.7215 0.174561 42.2881 4.51464 35.1572 12.3953C34.465 13.1602 34.524 14.3415 35.2889 15.0339C36.0538 15.7264 37.2352 15.6668 37.9274 14.9022C38.768 13.9731 39.6619 13.1004 40.6029 12.2824L44.393 39.4719C41.2799 38.5316 38.8073 37.5393 36.9502 36.7933C35.6576 36.274 34.6361 35.8641 33.8132 35.6324C31.7133 35.0416 30.0963 35.2518 28.9042 35.7241C29.6582 29.9217 31.3549 24.7445 33.986 20.2776C34.5098 19.389 34.2137 18.2437 33.3248 17.7199C32.4361 17.1964 31.2906 17.4923 30.767 18.3812C26.7508 25.1991 24.7143 33.4496 24.7143 42.9038C24.7143 56.0401 26.4703 68.9164 27.6504 74.3661C28.2056 76.9293 29.375 79.3634 31.0321 81.4056C32.6336 83.379 34.2643 85.1972 35.9226 86.8617V91.8265C35.9226 92.644 35.399 93.3593 34.6199 93.6066L32.3586 94.3249C30.0211 95.0669 28.4504 97.2137 28.4504 99.666V103.038L22.2316 105.013C21.4557 105.259 20.929 105.979 20.929 106.793V114.265C20.929 114.861 21.2131 115.421 21.6939 115.773C22.0179 116.01 22.4052 116.133 22.797 116.133C22.9865 116.133 23.1771 116.104 23.3624 116.045L28.5147 114.41C29.0447 117.728 32.9275 120.227 37.7909 120.227C43.0283 120.227 47.1311 117.33 47.1311 113.631V104.267C50.1368 106.744 55.2107 109.666 62.6672 110.093V113.888C62.6672 114.919 63.5035 115.756 64.5352 115.756C65.5668 115.756 66.4032 114.919 66.4032 113.888V110.093C73.8599 109.666 78.9335 106.744 81.9393 104.267V113.631C81.9393 117.33 86.042 120.227 91.2795 120.227C96.1429 120.227 100.025 117.728 100.556 114.41L105.708 116.046C105.893 116.105 106.084 116.134 106.273 116.134C106.665 116.134 107.052 116.01 107.376 115.773C107.857 115.422 108.141 114.861 108.141 114.266V109.546C114.329 112.537 118.335 118.793 118.335 125.831C118.335 126.863 119.171 127.699 120.203 127.699C121.234 127.699 122.071 126.863 122.071 125.831C122.071 116.272 115.95 107.906 106.839 105.013ZM97.7683 73.5753C97.3367 75.5686 96.4268 77.462 95.1371 79.0514C89.4483 86.0612 83.4181 90.9692 77.1113 93.7471L79.8165 74.3414C86.7245 72.4537 91.7567 69.5622 95.0315 67.1776C96.656 65.9948 98.1133 64.7384 99.3534 63.4762C98.8393 67.7896 98.2538 71.3336 97.7683 73.5753ZM100.163 35.7228C98.9708 35.2513 97.3549 35.0421 95.2572 35.6322C94.4343 35.8638 93.4131 36.2738 92.1201 36.7931C90.2631 37.5393 87.7905 38.5314 84.6774 39.4716L88.4675 12.2814C89.0117 12.7542 89.541 13.2439 90.0508 13.7537C95.5521 19.2559 98.9873 26.763 100.163 35.7228ZM75.7997 5.47481L72.4803 29.2876C71.083 29.4826 68.4745 29.7441 64.5352 29.7441C60.5946 29.7441 57.9856 29.4823 56.59 29.2878L53.2697 5.46734C56.7911 4.44265 60.5747 3.91064 64.5352 3.91064C68.483 3.91064 72.2701 4.44639 75.7997 5.47481ZM44.0147 9.69732C45.7818 8.5369 47.6743 7.5431 49.6723 6.72241L53.0781 31.1554C53.1842 31.9168 53.7459 32.5352 54.4934 32.7143C54.6239 32.7457 57.7709 33.4802 64.5349 33.4802C71.299 33.4802 74.446 32.7457 74.5765 32.7143C75.324 32.5352 75.8856 31.9168 75.9917 31.1554L79.3966 6.72963C81.3954 7.54983 83.2881 8.54387 85.0545 9.70156L80.7577 40.5267C76.3429 41.5698 70.9538 42.3628 64.5349 42.3628C58.1161 42.3628 52.7267 41.5698 48.3122 40.5267L44.0147 9.69732ZM29.7294 39.5052C30.637 38.8178 31.9011 38.9752 32.8017 39.2288C33.4306 39.4056 34.3691 39.783 35.5574 40.2602C40.6368 42.3008 50.0915 46.0992 64.5352 46.0992C78.9789 46.0992 88.4336 42.3008 93.5129 40.2602C94.7013 39.783 95.6398 39.4056 96.2687 39.2288C97.1693 38.9755 98.4336 38.818 99.341 39.5052C100.154 40.1209 100.62 41.3596 100.62 42.9041C100.62 47.1834 100.43 51.4268 100.135 55.3811C100.09 55.5121 100.057 55.6496 100.041 55.7935C99.7196 58.8006 90.2728 69.7754 71.7553 72.1394C70.7318 72.2699 70.008 73.2054 70.1388 74.2291C70.2591 75.1721 71.0631 75.8607 71.9894 75.8607C72.0681 75.8607 72.1481 75.8555 72.2283 75.8453C73.5053 75.6824 74.7334 75.4812 75.9173 75.2503L73.1356 95.2047C70.3176 96.0333 67.4493 96.4533 64.5349 96.4533C61.6206 96.4533 58.7522 96.0331 55.9342 95.2047L53.1511 75.2406C56.6486 75.9263 60.4447 76.326 64.5349 76.326C65.5666 76.326 66.403 75.4899 66.403 74.458C66.403 73.4261 65.5666 72.5899 64.5349 72.5899C41.2796 72.5899 29.3974 59.2387 29.0285 55.7935C29.0131 55.6498 28.9804 55.5126 28.9351 55.3818C28.6402 51.4273 28.4502 47.1836 28.4502 42.9041C28.4507 41.3596 28.9167 40.1209 29.7294 39.5052ZM33.9332 79.0514C32.6435 77.4623 31.7337 75.5688 31.302 73.5755C30.8164 71.3329 30.2305 67.7868 29.7165 63.4709C33.7053 67.551 40.3174 71.8813 49.2524 74.3302L51.9593 93.7473C45.6523 90.9692 39.622 86.0612 33.9332 79.0514ZM24.665 108.16L28.4507 106.958V110.51L24.665 111.712V108.16ZM37.7909 116.491C35.1455 116.491 32.1867 115.268 32.1867 113.631V99.6663C32.1867 98.8488 32.7103 98.1335 33.4896 97.8862L35.751 97.1678C38.0885 96.4259 39.6589 94.2791 39.6589 91.8268V90.3097C40.8903 91.3495 42.1359 92.306 43.395 93.1824V113.631C43.395 115.268 40.4363 116.491 37.7909 116.491ZM47.1311 99.0349V95.5242C48.8579 96.4864 50.6083 97.3013 52.3817 97.9664V103.374C49.4987 101.727 47.7998 99.864 47.1311 99.0349ZM64.5352 106.416C61.2352 106.416 58.4441 105.866 56.1176 105.062V99.135C58.874 99.8342 61.6808 100.19 64.5352 100.19C70.558 100.19 76.3721 98.6264 81.9393 95.5247V99.0304C80.626 100.643 75.1793 106.416 64.5352 106.416ZM91.2795 116.491C88.6341 116.491 85.6754 115.268 85.6754 113.631V93.1824C86.9345 92.306 88.1801 91.3495 89.4115 90.3097V91.8268C89.4115 94.2794 90.9821 96.4259 93.3192 97.1678L95.581 97.8862C96.3601 98.1335 96.8836 98.8488 96.8836 99.6663V104.386V104.406V113.631C96.8836 115.268 93.9252 116.491 91.2795 116.491ZM100.62 110.51V106.958L104.405 108.16V111.712L100.62 110.51Z" fill="url(#paint1_linear_246_267)"/>
<path d="M64.5348 119.492C63.5031 119.492 62.6667 120.328 62.6667 121.36V125.831C62.6667 126.863 63.5031 127.699 64.5348 127.699C65.5664 127.699 66.4028 126.863 66.4028 125.831V121.36C66.4028 120.328 65.5664 119.492 64.5348 119.492Z" fill="url(#paint2_linear_246_267)"/>
<path d="M98.7509 123.963H83.8066C82.775 123.963 81.9386 124.799 81.9386 125.831C81.9386 126.863 82.775 127.699 83.8066 127.699H98.7509C99.7826 127.699 100.619 126.863 100.619 125.831C100.619 124.799 99.7828 123.963 98.7509 123.963Z" fill="url(#paint3_linear_246_267)"/>
</g>
<defs>
<linearGradient id="paint0_linear_246_267" x1="12.2756" y1="108.933" x2="12.2756" y2="127.699" gradientUnits="userSpaceOnUse">
<stop stop-color="white"/>
<stop offset="1" stop-color="#88B3AA"/>
</linearGradient>
<linearGradient id="paint1_linear_246_267" x1="71.4999" y1="0.174561" x2="71.4999" y2="127.699" gradientUnits="userSpaceOnUse">
<stop stop-color="white"/>
<stop offset="1" stop-color="#88B3AA"/>
</linearGradient>
<linearGradient id="paint2_linear_246_267" x1="64.5348" y1="119.492" x2="64.5348" y2="127.699" gradientUnits="userSpaceOnUse">
<stop stop-color="white"/>
<stop offset="1" stop-color="#88B3AA"/>
</linearGradient>
<linearGradient id="paint3_linear_246_267" x1="91.2788" y1="123.963" x2="91.2788" y2="127.699" gradientUnits="userSpaceOnUse">
<stop stop-color="white"/>
<stop offset="1" stop-color="#88B3AA"/>
</linearGradient>
<clipPath id="clip0_246_267">
<rect width="127.525" height="127.525" fill="white" transform="translate(0.772217 0.174561)"/>
</clipPath>
</defs>
</svg>
