<svg width="24" height="25" viewBox="0 0 24 25" fill="none" xmlns="http://www.w3.org/2000/svg">
<g id="ic:outline-telegram">
<path id="Vector" d="M12 1C5.376 1 0 6.376 0 13C0 19.624 5.376 25 12 25C18.624 25 24 19.624 24 13C24 6.376 18.624 1 12 1ZM17.568 9.16C17.388 11.056 16.608 15.664 16.212 17.788C16.044 18.688 15.708 18.988 15.396 19.024C14.7 19.084 14.172 18.568 13.5 18.124C12.444 17.428 11.844 16.996 10.824 16.324C9.636 15.544 10.404 15.112 11.088 14.416C11.268 14.236 14.34 11.44 14.4 11.188C14.4083 11.1498 14.4072 11.1102 14.3968 11.0726C14.3863 11.0349 14.3668 11.0004 14.34 10.972C14.268 10.912 14.172 10.936 14.088 10.948C13.98 10.972 12.3 12.088 9.024 14.296C8.544 14.62 8.112 14.788 7.728 14.776C7.296 14.764 6.48 14.536 5.868 14.332C5.112 14.092 4.524 13.96 4.572 13.54C4.596 13.324 4.896 13.108 5.46 12.88C8.964 11.356 11.292 10.348 12.456 9.868C15.792 8.476 16.476 8.236 16.932 8.236C17.028 8.236 17.256 8.26 17.4 8.38C17.52 8.476 17.556 8.608 17.568 8.704C17.556 8.776 17.58 8.992 17.568 9.16Z" fill="#679F8E"/>
</g>
</svg>
