<svg width="155" height="21" viewBox="0 0 155 21" fill="none" xmlns="http://www.w3.org/2000/svg">
<g filter="url(#filter0_d_131_1989)">
<path d="M4.46356 6.49195H15.82C16.0611 6.49195 16.2721 6.44975 16.4529 6.36536C16.6338 6.26892 16.7784 6.15439 16.8869 6.02178C17.0075 5.88916 17.0979 5.73847 17.1582 5.56969C17.2185 5.40091 17.2486 5.24419 17.2486 5.09952V3.74325C17.2486 3.59859 17.2185 3.44186 17.1582 3.27308C17.0979 3.1043 17.0075 2.95361 16.8869 2.82099C16.7784 2.68838 16.6338 2.57988 16.4529 2.49549C16.2721 2.39905 16.0611 2.35082 15.82 2.35082H4.46356V0.0361328H15.82C16.4107 0.0361328 16.9291 0.15669 17.3752 0.397804C17.8333 0.626862 18.2131 0.922225 18.5145 1.2839C18.8158 1.64557 19.0449 2.04943 19.2016 2.49549C19.3583 2.9295 19.4367 3.34542 19.4367 3.74325V5.09952C19.4367 5.49735 19.3583 5.9193 19.2016 6.36536C19.0449 6.79937 18.8158 7.1972 18.5145 7.55887C18.2131 7.92054 17.8333 8.22194 17.3752 8.46305C16.9291 8.69211 16.4107 8.80664 15.82 8.80664H6.65167V12.6765H4.46356V6.49195Z" fill="white"/>
<path d="M21.9437 9.58423C21.9437 9.24667 22.01 8.89705 22.1426 8.53538C22.2752 8.16166 22.4681 7.8241 22.7213 7.52271C22.9744 7.22132 23.2879 6.97417 23.6616 6.78128C24.0353 6.58839 24.4693 6.49195 24.9636 6.49195H32.1789V6.3292C32.1789 6.17247 32.1488 6.01575 32.0885 5.85903C32.0282 5.69025 31.9378 5.53955 31.8173 5.40694C31.7088 5.26227 31.5641 5.14774 31.3833 5.06335C31.2024 4.97896 30.9915 4.93677 30.7503 4.93677H23.2276V2.62208H30.7503C31.3411 2.62208 31.8595 2.74263 32.3055 2.98375C32.7636 3.2128 33.1434 3.50817 33.4448 3.86984C33.7462 4.23151 33.9752 4.62935 34.132 5.06335C34.2887 5.49735 34.3671 5.9193 34.3671 6.3292V8.96939C34.3671 9.36723 34.2887 9.78918 34.132 10.2352C33.9752 10.6692 33.7462 11.0671 33.4448 11.4287C33.1434 11.7904 32.7636 12.0918 32.3055 12.3329C31.8595 12.562 31.3411 12.6765 30.7503 12.6765H24.9636C24.4693 12.6765 24.0353 12.5801 23.6616 12.3872C23.2879 12.1943 22.9744 11.9471 22.7213 11.6457C22.4681 11.3444 22.2752 11.0128 22.1426 10.6512C22.01 10.2774 21.9437 9.92179 21.9437 9.58423ZM24.1318 9.58423C24.1318 9.75301 24.1981 9.92782 24.3307 10.1087C24.4754 10.2774 24.6863 10.3618 24.9636 10.3618H30.7503C31.0156 10.3618 31.2386 10.3136 31.4194 10.2172C31.6003 10.1207 31.7449 10.0001 31.8534 9.85548C31.974 9.71081 32.0584 9.55409 32.1066 9.38531C32.1548 9.20448 32.1789 9.03569 32.1789 8.87897V8.80664H24.9636C24.6863 8.80664 24.4754 8.89705 24.3307 9.07789C24.1981 9.24667 24.1318 9.41545 24.1318 9.58423Z" fill="white"/>
<path d="M37.134 0.0361328H39.3221V2.62208H41.8899V4.93677H39.3221V8.96939C39.3221 9.11406 39.3522 9.27078 39.4125 9.43956C39.4728 9.60834 39.5632 9.75904 39.6837 9.89165C39.8043 10.0243 39.955 10.1388 40.1358 10.2352C40.3167 10.3196 40.5216 10.3618 40.7507 10.3618H41.8899V12.6765H40.7507C40.1599 12.6765 39.6355 12.562 39.1774 12.3329C38.7313 12.0918 38.3576 11.7904 38.0562 11.4287C37.7548 11.0671 37.5258 10.6692 37.3691 10.2352C37.2123 9.78918 37.134 9.36723 37.134 8.96939V0.0361328Z" fill="white"/>
<path d="M46.9157 0.0361328V2.91141L47.0604 2.87524C47.4944 2.70646 47.9224 2.62208 48.3443 2.62208H53.5343C54.125 2.62208 54.6434 2.74263 55.0895 2.98375C55.5476 3.2128 55.9274 3.50817 56.2287 3.86984C56.5301 4.23151 56.7592 4.62935 56.9159 5.06335C57.0726 5.49735 57.151 5.9193 57.151 6.3292V12.6765H54.9629V6.3292C54.9629 6.17247 54.9328 6.01575 54.8725 5.85903C54.8122 5.69025 54.7218 5.53955 54.6012 5.40694C54.4807 5.26227 54.33 5.14774 54.1491 5.06335C53.9804 4.97896 53.7754 4.93677 53.5343 4.93677H48.3443C48.1153 4.93677 47.9103 4.97896 47.7295 5.06335C47.5487 5.14774 47.398 5.26227 47.2774 5.40694C47.1568 5.53955 47.0664 5.69025 47.0062 5.85903C46.9459 6.01575 46.9157 6.17247 46.9157 6.3292V12.6765H44.7276V0.0361328H46.9157Z" fill="white"/>
<path d="M59.915 6.49195H71.2714C71.5125 6.49195 71.7235 6.44975 71.9043 6.36536C72.0852 6.26892 72.2298 6.15439 72.3383 6.02178C72.4589 5.88916 72.5493 5.73847 72.6096 5.56969C72.6699 5.40091 72.7 5.24419 72.7 5.09952V3.74325C72.7 3.59859 72.6699 3.44186 72.6096 3.27308C72.5493 3.1043 72.4589 2.95361 72.3383 2.82099C72.2298 2.68838 72.0852 2.57988 71.9043 2.49549C71.7235 2.39905 71.5125 2.35082 71.2714 2.35082H59.915V0.0361328H71.2714C71.8621 0.0361328 72.3805 0.15669 72.8266 0.397804C73.2847 0.626862 73.6645 0.922225 73.9658 1.2839C74.2672 1.64557 74.4963 2.04943 74.653 2.49549C74.8097 2.9295 74.8881 3.34542 74.8881 3.74325V5.09952C74.8881 5.49735 74.8097 5.9193 74.653 6.36536C74.4963 6.79937 74.2672 7.1972 73.9658 7.55887C73.6645 7.92054 73.2847 8.22194 72.8266 8.46305C72.3805 8.69211 71.8621 8.80664 71.2714 8.80664H62.1031V12.6765H59.915V6.49195Z" fill="white"/>
<path d="M77.5217 2.62208H79.7098V8.96939C79.7098 9.11406 79.7399 9.27078 79.8002 9.43956C79.8604 9.60834 79.9509 9.75904 80.0714 9.89165C80.192 10.0243 80.3427 10.1388 80.5235 10.2352C80.7043 10.3196 80.9093 10.3618 81.1384 10.3618H86.3283C86.5694 10.3618 86.7744 10.3196 86.9432 10.2352C87.124 10.1388 87.2747 10.0243 87.3952 9.89165C87.5158 9.75904 87.6062 9.60834 87.6665 9.43956C87.7268 9.27078 87.7569 9.11406 87.7569 8.96939V2.62208H89.945V8.96939C89.945 9.36723 89.8667 9.78918 89.7099 10.2352C89.5532 10.6692 89.3242 11.0671 89.0228 11.4287C88.7214 11.7904 88.3416 12.0918 87.8835 12.3329C87.4374 12.562 86.9191 12.6765 86.3283 12.6765H81.1384C80.5476 12.6765 80.0232 12.562 79.5651 12.3329C79.119 12.0918 78.7453 11.7904 78.4439 11.4287C78.1425 11.0671 77.9135 10.6692 77.7567 10.2352C77.6 9.78918 77.5217 9.36723 77.5217 8.96939V2.62208Z" fill="white"/>
<path d="M92.709 0.0361328H94.8971V8.96939C94.8971 9.11406 94.9212 9.26475 94.9694 9.42148C95.0297 9.56614 95.1081 9.70479 95.2045 9.8374C95.313 9.97001 95.4456 10.0845 95.6023 10.181C95.7591 10.2774 95.9399 10.3377 96.1449 10.3618V12.6765C95.5782 12.6524 95.0779 12.5198 94.6439 12.2787C94.222 12.0376 93.8663 11.7362 93.577 11.3745C93.2877 11.0128 93.0706 10.621 92.926 10.1991C92.7813 9.77712 92.709 9.36723 92.709 8.96939V0.0361328Z" fill="white"/>
<path d="M98.2439 5.71436C98.2439 5.3768 98.3103 5.02718 98.4429 4.66551C98.5755 4.29179 98.7684 3.95423 99.0215 3.65284C99.2747 3.35144 99.5882 3.1043 99.9619 2.91141C100.336 2.71852 100.77 2.62208 101.264 2.62208H109.383V4.93677H101.264C100.987 4.93677 100.782 5.02718 100.649 5.20802C100.516 5.3768 100.45 5.54558 100.45 5.71436C100.45 5.88314 100.516 6.05794 100.649 6.23878C100.782 6.40756 100.987 6.49195 101.264 6.49195H107.647C108.142 6.49195 108.576 6.58839 108.949 6.78128C109.323 6.97417 109.637 7.22132 109.89 7.52271C110.143 7.8241 110.336 8.16166 110.468 8.53538C110.601 8.89705 110.667 9.24667 110.667 9.58423C110.667 9.92179 110.601 10.2774 110.468 10.6512C110.336 11.0128 110.143 11.3444 109.89 11.6457C109.637 11.9471 109.323 12.1943 108.949 12.3872C108.576 12.5801 108.142 12.6765 107.647 12.6765H99.5279V10.3618H107.647C107.925 10.3618 108.13 10.2774 108.262 10.1087C108.407 9.92782 108.479 9.75301 108.479 9.58423C108.479 9.41545 108.407 9.24667 108.262 9.07789C108.13 8.89705 107.925 8.80664 107.647 8.80664H101.264C100.77 8.80664 100.336 8.71019 99.9619 8.5173C99.5882 8.32441 99.2747 8.07727 99.0215 7.77588C98.7684 7.47449 98.5755 7.14295 98.4429 6.78128C98.3103 6.40756 98.2439 6.05192 98.2439 5.71436Z" fill="white"/>
<path d="M122.527 2.62208C123.021 2.62208 123.455 2.71852 123.829 2.91141C124.203 3.1043 124.516 3.35144 124.769 3.65284C125.023 3.95423 125.215 4.29179 125.348 4.66551C125.481 5.02718 125.547 5.3768 125.547 5.71436C125.547 6.05192 125.481 6.40756 125.348 6.78128C125.215 7.14295 125.023 7.47449 124.769 7.77588C124.516 8.07727 124.203 8.32441 123.829 8.5173C123.455 8.71019 123.021 8.80664 122.527 8.80664H115.312V8.96939C115.312 9.11406 115.342 9.27078 115.402 9.43956C115.462 9.60834 115.553 9.75904 115.673 9.89165C115.794 10.0243 115.945 10.1388 116.125 10.2352C116.306 10.3196 116.511 10.3618 116.74 10.3618H124.263V12.6765H116.74C116.15 12.6765 115.625 12.562 115.167 12.3329C114.721 12.0918 114.347 11.7904 114.046 11.4287C113.744 11.0671 113.515 10.6692 113.359 10.2352C113.202 9.78918 113.124 9.36723 113.124 8.96939V6.3292C113.124 5.9193 113.202 5.49735 113.359 5.06335C113.515 4.62935 113.744 4.23151 114.046 3.86984C114.347 3.50817 114.721 3.2128 115.167 2.98375C115.625 2.74263 116.15 2.62208 116.74 2.62208H122.527ZM122.527 6.49195C122.804 6.49195 123.009 6.40756 123.142 6.23878C123.286 6.05794 123.359 5.88314 123.359 5.71436C123.359 5.54558 123.286 5.3768 123.142 5.20802C123.009 5.02718 122.804 4.93677 122.527 4.93677H116.74C116.487 4.93677 116.27 4.98499 116.089 5.08143C115.908 5.17788 115.758 5.29844 115.637 5.4431C115.529 5.58777 115.444 5.75052 115.384 5.93136C115.336 6.10014 115.312 6.26289 115.312 6.41961V6.49195H122.527Z" fill="white"/>
<path d="M128.064 10.3618H130.252V12.6765H128.064V10.3618Z" fill="white"/>
<path d="M133.005 9.58423C133.005 9.24667 133.072 8.89705 133.204 8.53538C133.337 8.16166 133.53 7.8241 133.783 7.52271C134.036 7.22132 134.35 6.97417 134.723 6.78128C135.097 6.58839 135.531 6.49195 136.025 6.49195H143.241V6.3292C143.241 6.17247 143.211 6.01575 143.15 5.85903C143.09 5.69025 143 5.53955 142.879 5.40694C142.77 5.26227 142.626 5.14774 142.445 5.06335C142.264 4.97896 142.053 4.93677 141.812 4.93677H134.289V2.62208H141.812C142.403 2.62208 142.921 2.74263 143.367 2.98375C143.825 3.2128 144.205 3.50817 144.507 3.86984C144.808 4.23151 145.037 4.62935 145.194 5.06335C145.35 5.49735 145.429 5.9193 145.429 6.3292V8.96939C145.429 9.36723 145.35 9.78918 145.194 10.2352C145.037 10.6692 144.808 11.0671 144.507 11.4287C144.205 11.7904 143.825 12.0918 143.367 12.3329C142.921 12.562 142.403 12.6765 141.812 12.6765H136.025C135.531 12.6765 135.097 12.5801 134.723 12.3872C134.35 12.1943 134.036 11.9471 133.783 11.6457C133.53 11.3444 133.337 11.0128 133.204 10.6512C133.072 10.2774 133.005 9.92179 133.005 9.58423ZM135.193 9.58423C135.193 9.75301 135.26 9.92782 135.392 10.1087C135.537 10.2774 135.748 10.3618 136.025 10.3618H141.812C142.077 10.3618 142.3 10.3136 142.481 10.2172C142.662 10.1207 142.807 10.0001 142.915 9.85548C143.036 9.71081 143.12 9.55409 143.168 9.38531C143.217 9.20448 143.241 9.03569 143.241 8.87897V8.80664H136.025C135.748 8.80664 135.537 8.89705 135.392 9.07789C135.26 9.24667 135.193 9.41545 135.193 9.58423Z" fill="white"/>
<path d="M148.196 2.62208H150.384V12.6765H148.196V2.62208ZM148.196 0.0361328H150.384V1.37431H148.196V0.0361328Z" fill="white"/>
</g>
<defs>
<filter id="filter0_d_131_1989" x="0.463562" y="0.0361328" width="153.92" height="20.6404" filterUnits="userSpaceOnUse" color-interpolation-filters="sRGB">
<feFlood flood-opacity="0" result="BackgroundImageFix"/>
<feColorMatrix in="SourceAlpha" type="matrix" values="0 0 0 0 0 0 0 0 0 0 0 0 0 0 0 0 0 0 127 0" result="hardAlpha"/>
<feOffset dy="4"/>
<feGaussianBlur stdDeviation="2"/>
<feComposite in2="hardAlpha" operator="out"/>
<feColorMatrix type="matrix" values="0 0 0 0 0 0 0 0 0 0 0 0 0 0 0 0 0 0 0.25 0"/>
<feBlend mode="normal" in2="BackgroundImageFix" result="effect1_dropShadow_131_1989"/>
<feBlend mode="normal" in="SourceGraphic" in2="effect1_dropShadow_131_1989" result="shape"/>
</filter>
</defs>
</svg>
