<svg width="24" height="25" viewBox="0 0 24 25" fill="none" xmlns="http://www.w3.org/2000/svg">
<rect width="24" height="25" fill="#1E1E1E"/>
<g id="Hero Section-pp" clip-path="url(#clip0_0_1)">
<rect width="1440" height="7348" transform="translate(-54 -7128)" fill="#081716"/>
<g id="Join Network">
</g>
<g id="Footer">
<rect id="Rectangle 469" x="-57" y="-535" width="1447" height="755" fill="#091817"/>
<g id="Group 170">
<g id="Group 111">
<g id="Group 91">
<g id="Ellipse 16" filter="url(#filter0_f_0_1)">
<path d="M509 -68C509 63.9961 343.122 171 138.5 171C-66.1215 171 -232 63.9961 -232 -68C-232 -199.996 -66.1215 -307 138.5 -307C343.122 -307 509 -199.996 509 -68Z" fill="#02C394"/>
</g>
<g id="Ellipse 19" filter="url(#filter1_f_0_1)">
<path d="M510 -54C510 64.7412 360.463 161 176 161C-8.4631 161 -158 64.7412 -158 -54C-158 -172.741 -8.4631 -269 176 -269C360.463 -269 510 -172.741 510 -54Z" fill="#CBFFF2"/>
</g>
</g>
<g id="Vector 13" filter="url(#filter2_f_0_1)">
<path d="M-159.665 -47.7732L-579.826 -187.385L-467.716 -210.555C-241.476 -156.294 229.791 -38.1488 304.935 0.348419C398.866 48.47 873.567 23.5181 1193.74 23.5181C1449.87 23.5181 1895.69 -130.946 2086.58 -208.179L2308.78 -359.672C2293.29 -261.845 2100.11 -44.5651 1451.29 41.935C802.463 128.435 354.089 65.6988 211.005 23.5181L-159.665 -47.7732Z" fill="#02C394"/>
</g>
<g id="Vector 14" filter="url(#filter3_f_0_1)">
<path d="M-159.665 -47.7732L-579.826 -187.385L-467.716 -210.555C-241.476 -156.294 229.791 -38.1489 304.935 0.348412C398.866 48.47 873.567 23.5181 1193.74 23.5181C1449.87 23.5181 1895.69 -130.946 2086.58 -208.179L2308.78 -359.673C2293.29 -261.845 2100.11 -44.5651 1451.29 41.935C802.463 128.435 354.089 65.6988 211.005 23.5181L-159.665 -47.7732Z" fill="white" fill-opacity="0.4"/>
</g>
</g>
<g id="Group 162">
<g id="Group 169">
<path id="Vector 86" d="M-62.8975 -266.5C-189.128 -266.5 -62.8975 -266.5 -62.8975 -266.5V-266.5C-45.3077 -266.5 -22.8157 -266.5 5.60308 -266.5C639.604 -266.5 453 -121 966.604 -121C1226.6 -121 1392.5 -266.5 1392.5 -266.5V220H-62.8975V-266.5Z" fill="#081716"/>
<g id="Frame 52314">
<g id="Frame 47434">
<g id="Frame 52324">
<g id="Frame 350">
<g id="Credits">
<g id="Frame 52313">
<g id="Twitter" clip-path="url(#clip1_0_1)">
<path id="Vector" d="M14.2339 10.7669L22.9764 0.604492H20.9047L13.3137 9.42833L7.2507 0.604492H0.257812L9.42618 13.9477L0.257812 24.6045H2.3296L10.3459 15.2862L16.7489 24.6045H23.7418L14.2334 10.7669H14.2339ZM11.3963 14.0653L10.4674 12.7366L3.0761 2.1641H6.25825L12.2231 10.6964L13.1521 12.0251L20.9057 23.1158H17.7235L11.3963 14.0658V14.0653Z" fill="#679F8E"/>
</g>
</g>
</g>
</g>
</g>
</g>
</g>
</g>
</g>
</g>
</g>
</g>
<defs>
<filter id="filter0_f_0_1" x="-417.377" y="-492.377" width="1111.75" height="848.753" filterUnits="userSpaceOnUse" color-interpolation-filters="sRGB">
<feFlood flood-opacity="0" result="BackgroundImageFix"/>
<feBlend mode="normal" in="SourceGraphic" in2="BackgroundImageFix" result="shape"/>
<feGaussianBlur stdDeviation="92.6883" result="effect1_foregroundBlur_0_1"/>
</filter>
<filter id="filter1_f_0_1" x="-343.377" y="-454.377" width="1038.75" height="800.753" filterUnits="userSpaceOnUse" color-interpolation-filters="sRGB">
<feFlood flood-opacity="0" result="BackgroundImageFix"/>
<feBlend mode="normal" in="SourceGraphic" in2="BackgroundImageFix" result="shape"/>
<feGaussianBlur stdDeviation="92.6883" result="effect1_foregroundBlur_0_1"/>
</filter>
<filter id="filter2_f_0_1" x="-695.826" y="-475.672" width="3120.61" height="676.936" filterUnits="userSpaceOnUse" color-interpolation-filters="sRGB">
<feFlood flood-opacity="0" result="BackgroundImageFix"/>
<feBlend mode="normal" in="SourceGraphic" in2="BackgroundImageFix" result="shape"/>
<feGaussianBlur stdDeviation="58" result="effect1_foregroundBlur_0_1"/>
</filter>
<filter id="filter3_f_0_1" x="-695.826" y="-475.672" width="3120.61" height="676.936" filterUnits="userSpaceOnUse" color-interpolation-filters="sRGB">
<feFlood flood-opacity="0" result="BackgroundImageFix"/>
<feBlend mode="normal" in="SourceGraphic" in2="BackgroundImageFix" result="shape"/>
<feGaussianBlur stdDeviation="58" result="effect1_foregroundBlur_0_1"/>
</filter>
<clipPath id="clip0_0_1">
<rect width="1440" height="7348" fill="white" transform="translate(-54 -7128)"/>
</clipPath>
<clipPath id="clip1_0_1">
<rect width="24" height="24" fill="white" transform="translate(0 0.604492)"/>
</clipPath>
</defs>
</svg>
