<svg width="24" height="25" viewBox="0 0 24 25" fill="none" xmlns="http://www.w3.org/2000/svg">
<rect width="24" height="25" fill="#1E1E1E"/>
<g id="Hero Section-pp" clip-path="url(#clip0_0_1)">
<rect width="1440" height="7348" transform="translate(-198 -7128)" fill="#081716"/>
<g id="Join Network">
</g>
<g id="Footer">
<rect id="Rectangle 469" x="-201" y="-535" width="1447" height="755" fill="#091817"/>
<g id="Group 170">
<g id="Group 111">
<g id="Group 91">
<g id="Ellipse 9" opacity="0.5" filter="url(#filter0_f_0_1)">
<ellipse cx="396.655" cy="-64.5452" rx="274.603" ry="166.464" fill="#E1E1E1"/>
</g>
<g id="Ellipse 6" filter="url(#filter1_f_0_1)">
<path d="M544 -68C544 15.395 439.011 83 309.5 83C179.989 83 75 15.395 75 -68C75 -151.395 179.989 -219 309.5 -219C439.011 -219 544 -151.395 544 -68Z" fill="#02C394"/>
</g>
<g id="Ellipse 16" filter="url(#filter2_f_0_1)">
<path d="M365 -68C365 63.9961 199.122 171 -5.5 171C-210.122 171 -376 63.9961 -376 -68C-376 -199.996 -210.122 -307 -5.5 -307C199.122 -307 365 -199.996 365 -68Z" fill="#02C394"/>
</g>
<g id="Ellipse 18" filter="url(#filter3_f_0_1)">
<path d="M566 -50C566 14.6173 484.74 67 384.5 67C284.26 67 203 14.6173 203 -50C203 -114.617 284.26 -167 384.5 -167C484.74 -167 566 -114.617 566 -50Z" fill="#02C394"/>
</g>
<g id="Ellipse 19" filter="url(#filter4_f_0_1)">
<path d="M366 -54C366 64.7412 216.463 161 32 161C-152.463 161 -302 64.7412 -302 -54C-302 -172.741 -152.463 -269 32 -269C216.463 -269 366 -172.741 366 -54Z" fill="#CBFFF2"/>
</g>
</g>
<g id="Vector 13" filter="url(#filter5_f_0_1)">
<path d="M-303.665 -47.7732L-723.826 -187.385L-611.716 -210.555C-385.476 -156.294 85.7913 -38.1488 160.935 0.348419C254.866 48.47 729.567 23.5181 1049.74 23.5181C1305.87 23.5181 1751.69 -130.946 1942.58 -208.179L2164.78 -359.672C2149.29 -261.845 1956.11 -44.5651 1307.29 41.935C658.463 128.435 210.089 65.6988 67.0053 23.5181L-303.665 -47.7732Z" fill="#02C394"/>
</g>
<g id="Vector 14" filter="url(#filter6_f_0_1)">
<path d="M-303.665 -47.7732L-723.826 -187.385L-611.716 -210.555C-385.476 -156.294 85.7913 -38.1489 160.935 0.348412C254.866 48.47 729.567 23.5181 1049.74 23.5181C1305.87 23.5181 1751.69 -130.946 1942.58 -208.179L2164.78 -359.673C2149.29 -261.845 1956.11 -44.5651 1307.29 41.935C658.463 128.435 210.089 65.6988 67.0053 23.5181L-303.665 -47.7732Z" fill="white" fill-opacity="0.4"/>
</g>
</g>
<g id="Group 162">
<g id="Group 169">
<path id="Vector 86" d="M-206.897 -266.5C-333.128 -266.5 -206.897 -266.5 -206.897 -266.5V-266.5C-189.308 -266.5 -166.816 -266.5 -138.397 -266.5C495.604 -266.5 309 -121 822.604 -121C1082.6 -121 1248.5 -266.5 1248.5 -266.5V220H-206.897V-266.5Z" fill="#081716"/>
<g id="Frame 52314">
<g id="Frame 47434">
<g id="Frame 52324">
<g id="Frame 350">
<g id="Credits">
<g id="Frame 52313">
<g id="Youtube">
<path id="Vector" d="M22.7747 6.98068C22.5154 6.01677 21.7554 5.25693 20.7916 4.99738C19.0309 4.51562 11.988 4.51562 11.988 4.51562C11.988 4.51562 4.94536 4.51562 3.18466 4.97911C2.23943 5.23839 1.46091 6.01691 1.20163 6.98068C0.738281 8.74124 0.738281 12.3924 0.738281 12.3924C0.738281 12.3924 0.738281 16.062 1.20163 17.8041C1.46118 18.7679 2.22089 19.5278 3.1848 19.7873C4.9639 20.2692 11.9883 20.2692 11.9883 20.2692C11.9883 20.2692 19.0309 20.2692 20.7916 19.8057C21.7555 19.5463 22.5154 18.7865 22.7749 17.8227C23.2381 16.062 23.2381 12.4109 23.2381 12.4109C23.2381 12.4109 23.2567 8.74124 22.7747 6.98068ZM9.7457 15.7655V9.01933L15.6022 12.3924L9.7457 15.7655Z" fill="#679F8E"/>
</g>
</g>
</g>
</g>
</g>
</g>
</g>
</g>
</g>
</g>
</g>
</g>
<defs>
<filter id="filter0_f_0_1" x="-5.25414" y="-358.316" width="803.819" height="587.541" filterUnits="userSpaceOnUse" color-interpolation-filters="sRGB">
<feFlood flood-opacity="0" result="BackgroundImageFix"/>
<feBlend mode="normal" in="SourceGraphic" in2="BackgroundImageFix" result="shape"/>
<feGaussianBlur stdDeviation="63.6534" result="effect1_foregroundBlur_0_1"/>
</filter>
<filter id="filter1_f_0_1" x="-110.377" y="-404.377" width="839.753" height="672.753" filterUnits="userSpaceOnUse" color-interpolation-filters="sRGB">
<feFlood flood-opacity="0" result="BackgroundImageFix"/>
<feBlend mode="normal" in="SourceGraphic" in2="BackgroundImageFix" result="shape"/>
<feGaussianBlur stdDeviation="92.6883" result="effect1_foregroundBlur_0_1"/>
</filter>
<filter id="filter2_f_0_1" x="-561.377" y="-492.377" width="1111.75" height="848.753" filterUnits="userSpaceOnUse" color-interpolation-filters="sRGB">
<feFlood flood-opacity="0" result="BackgroundImageFix"/>
<feBlend mode="normal" in="SourceGraphic" in2="BackgroundImageFix" result="shape"/>
<feGaussianBlur stdDeviation="92.6883" result="effect1_foregroundBlur_0_1"/>
</filter>
<filter id="filter3_f_0_1" x="17.6233" y="-352.377" width="733.753" height="604.753" filterUnits="userSpaceOnUse" color-interpolation-filters="sRGB">
<feFlood flood-opacity="0" result="BackgroundImageFix"/>
<feBlend mode="normal" in="SourceGraphic" in2="BackgroundImageFix" result="shape"/>
<feGaussianBlur stdDeviation="92.6883" result="effect1_foregroundBlur_0_1"/>
</filter>
<filter id="filter4_f_0_1" x="-487.377" y="-454.377" width="1038.75" height="800.753" filterUnits="userSpaceOnUse" color-interpolation-filters="sRGB">
<feFlood flood-opacity="0" result="BackgroundImageFix"/>
<feBlend mode="normal" in="SourceGraphic" in2="BackgroundImageFix" result="shape"/>
<feGaussianBlur stdDeviation="92.6883" result="effect1_foregroundBlur_0_1"/>
</filter>
<filter id="filter5_f_0_1" x="-839.826" y="-475.672" width="3120.61" height="676.936" filterUnits="userSpaceOnUse" color-interpolation-filters="sRGB">
<feFlood flood-opacity="0" result="BackgroundImageFix"/>
<feBlend mode="normal" in="SourceGraphic" in2="BackgroundImageFix" result="shape"/>
<feGaussianBlur stdDeviation="58" result="effect1_foregroundBlur_0_1"/>
</filter>
<filter id="filter6_f_0_1" x="-839.826" y="-475.672" width="3120.61" height="676.936" filterUnits="userSpaceOnUse" color-interpolation-filters="sRGB">
<feFlood flood-opacity="0" result="BackgroundImageFix"/>
<feBlend mode="normal" in="SourceGraphic" in2="BackgroundImageFix" result="shape"/>
<feGaussianBlur stdDeviation="58" result="effect1_foregroundBlur_0_1"/>
</filter>
<clipPath id="clip0_0_1">
<rect width="1440" height="7348" fill="white" transform="translate(-198 -7128)"/>
</clipPath>
</defs>
</svg>
